<?xml version="1.0" standalone="no"?>
<!DOCTYPE svg PUBLIC "-//W3C//DTD SVG 1.1//EN" "http://www.w3.org/Graphics/SVG/1.1/DTD/svg11.dtd" >
<svg xmlns="http://www.w3.org/2000/svg">
<metadata></metadata>
<defs>
<font id="freightsans_promedium_italic" horiz-adv-x="1024" >
<font-face units-per-em="2048" ascent="1638" descent="-410" />
<missing-glyph horiz-adv-x="466" />
<glyph unicode="&#xfb01;" horiz-adv-x="1099" d="M82 797l6 106l184 45l29 144q32 161 108 247t224 86q60 0 122 -19.5t105 -51.5l-72 -146q-88 58 -165 58q-121 0 -154 -179l-29 -149h265l-7 -152h-286l-154 -786h-168l152 784zM702 0l181 924l172 26l-185 -950h-168zM922 1266q0 51 29 85.5t83 34.5t81.5 -34.5 t27.5 -85.5t-28.5 -86t-82.5 -35t-82 35t-28 86z" />
<glyph unicode="&#xfb02;" horiz-adv-x="1105" d="M82 797l6 106l184 45l29 144q32 161 108 247t224 86q60 0 122 -19.5t105 -51.5l-72 -146q-88 58 -165 58q-121 0 -154 -179l-29 -149h265l-7 -152h-286l-154 -786h-168l152 784zM702 0l269 1380l174 27l-275 -1407h-168z" />
<glyph unicode="&#xfb03;" horiz-adv-x="1746" d="M82 797l6 106l184 45l25 123q15 78 39 136t62.5 104t96.5 70t134 24q60 0 122 -20t105 -52l-72 -145q-86 57 -166 57q-120 0 -153 -178l-25 -129h478l30 154q32 161 108 247t224 86q60 0 122 -19.5t105 -51.5l-71 -146q-88 58 -166 58q-121 0 -154 -179l-29 -149h265 l-6 -152h-287l-154 -786h-168l152 786h-477l-154 -786h-168l152 784zM1350 0l180 924l172 26l-184 -950h-168zM1569 1266q0 51 29 85.5t83 34.5t81.5 -34.5t27.5 -85.5t-28.5 -86t-82.5 -35t-82 35t-28 86z" />
<glyph unicode="&#xfb04;" horiz-adv-x="1753" d="M82 797l6 106l184 45l25 123q15 78 39 136t62.5 104t96.5 70t134 24q60 0 122 -20t105 -52l-72 -145q-86 57 -166 57q-120 0 -153 -178l-25 -129h478l30 154q32 161 108 247t224 86q60 0 122 -19.5t105 -51.5l-71 -146q-88 58 -166 58q-121 0 -154 -179l-29 -149h263 l-7 -152h-284l-154 -786h-168l152 786h-477l-154 -786h-168l152 784zM1350 0l268 1380l174 27l-274 -1407h-168z" />
<glyph horiz-adv-x="0" />
<glyph horiz-adv-x="682" />
<glyph unicode=" "  horiz-adv-x="466" />
<glyph unicode="&#x09;" horiz-adv-x="466" />
<glyph unicode="&#xa0;" horiz-adv-x="466" />
<glyph unicode="!" horiz-adv-x="563" d="M80 102q0 53 38.5 91t94.5 38q57 0 94 -37.5t37 -91.5t-37 -93.5t-94 -39.5q-56 0 -94.5 39.5t-38.5 93.5zM221 403l131 926l203 -20l-236 -914z" />
<glyph unicode="&#x22;" horiz-adv-x="622" d="M51 815l334 506l145 -74l-403 -432h-76zM358 815l334 506l146 -74l-404 -432h-76z" />
<glyph unicode="#" horiz-adv-x="1146" d="M-57 -152l231 480h-156v118h213l146 299h-236v119h291l219 451h129q-217 -451 -219 -451h344l217 451h129l-217 -451h150v-119h-207l-146 -299h230v-118h-287l-231 -480h-129l231 480h-342l-231 -480h-129zM360 446h342l146 299h-342z" />
<glyph unicode="$" horiz-adv-x="1038" d="M23 90l34 172q122 -72 254 -110l152 446q-136 59 -210.5 135.5t-74.5 192.5q0 120 62.5 209t161 131.5t216.5 42.5q48 0 95 -6l65 192h101q-70 -207 -72 -207q102 -22 215 -76l-35 -168q-118 64 -231 89l-142 -416h2q75 -31 128 -62t99 -73.5t69.5 -98.5t23.5 -125 q0 -117 -61.5 -207t-167 -137t-236.5 -47q-51 0 -119 10l-78 -229h-100l84 248q-138 35 -235 94zM346 946q0 -62 41.5 -105t138.5 -87l136 395q-40 4 -58 4q-113 0 -185.5 -54.5t-72.5 -152.5zM403 131q40 -6 74 -6q128 0 209.5 59t81.5 156q0 69 -51.5 121.5t-165.5 99.5 q-146 -430 -148 -430z" />
<glyph unicode="%" horiz-adv-x="1515" d="M88 -31l1272 1340h139l-1272 -1340h-139zM109 946q0 156 108 268.5t262 112.5q139 0 231.5 -82t92.5 -219q0 -159 -109 -271t-268 -112q-136 0 -226.5 83t-90.5 220zM217 952q0 -96 61.5 -153.5t155.5 -57.5q108 0 183 77t75 188q0 97 -60.5 156t-158.5 59 q-107 0 -181.5 -80t-74.5 -189zM795 256q0 160 106.5 270.5t265.5 110.5q138 0 230 -81.5t92 -217.5q0 -158 -111 -271.5t-268 -113.5q-139 0 -227 82.5t-88 220.5zM903 264q0 -95 61.5 -152t155.5 -57q108 0 183 80t75 191q0 93 -63 151t-156 58q-107 0 -181.5 -81 t-74.5 -190z" />
<glyph unicode="&#x26;" horiz-adv-x="1273" d="M18 301q0 77 31.5 143t86 113.5t117.5 81t136 55.5q-149 108 -149 260q0 65 26.5 128t74.5 114t124 82t166 31q149 0 249.5 -87.5t100.5 -209.5q0 -124 -90.5 -210.5t-224.5 -127.5q60 -41 116 -99.5t95 -123.5l249 321h205l-383 -428l211 -344l-180 -31l-148 250 q-227 -250 -444 -250q-159 0 -264 96t-105 236zM188 330q0 -93 63.5 -153t162.5 -60q170 0 358 213q-124 193 -291 301q-138 -46 -215.5 -122t-77.5 -179zM406 969q0 -61 39.5 -112.5t132.5 -117.5q110 43 173.5 103.5t63.5 150.5q0 75 -56.5 124.5t-140.5 49.5 q-93 0 -152.5 -59t-59.5 -139z" />
<glyph unicode="'" horiz-adv-x="315" d="M57 815l334 506l139 -74l-403 -432h-70z" />
<glyph unicode="(" horiz-adv-x="745" d="M137 449q0 147 36.5 285.5t95.5 244.5t136 196.5t153.5 151t152.5 98.5l71 -106q-69 -38 -137 -95.5t-133.5 -140t-115.5 -177t-80.5 -214t-30.5 -243.5q0 -154 46 -298.5t120.5 -253.5t159 -189t171.5 -128l-71 -106q-76 37 -153 97.5t-153.5 151t-135.5 196.5 t-95.5 244.5t-36.5 285.5z" />
<glyph unicode=")" horiz-adv-x="745" d="M-37 -420q69 38 137.5 95.5t134 139.5t115.5 176.5t80.5 214t30.5 243.5t-30.5 243.5t-80.5 214t-115.5 177t-134 140t-137.5 95.5l74 106q76 -38 152.5 -98.5t153 -151t134.5 -197t94.5 -244.5t36.5 -285t-36.5 -285.5t-95 -244.5t-135 -196.5t-153 -151t-153.5 -97.5z " />
<glyph unicode="*" horiz-adv-x="702" d="M100 911l308 68l2 10l-250 180l127 123l159 -272h9l98 295l152 -84l-207 -236l4 -6l301 2l-33 -170l-278 117l-7 -4l99 -297l-172 -16l24 309l-6 4l-246 -184z" />
<glyph unicode="+" horiz-adv-x="991" d="M82 408l6 145h340v346h143v-346h336l6 -145h-342v-349h-143v349h-346z" />
<glyph unicode="," horiz-adv-x="450" d="M-119 -260q36 20 76 48t84 65t72 79.5t28 79.5q0 20 -11.5 40t-34 39t-37 29t-38.5 25q14 48 53 76.5t91 28.5q68 0 114 -50.5t46 -119.5q0 -66 -38 -132t-101 -120t-122.5 -93t-123.5 -71z" />
<glyph unicode="-" horiz-adv-x="634" d="M74 418v157h504v-157h-504z" />
<glyph unicode="." horiz-adv-x="450" d="M25 102q0 53 38.5 91t96.5 38q56 0 92.5 -37.5t36.5 -91.5t-36.5 -93.5t-92.5 -39.5q-57 0 -96 39.5t-39 93.5z" />
<glyph unicode="/" horiz-adv-x="444" d="M-233 -408l851 1846h119l-852 -1846h-118z" />
<glyph unicode="0" d="M74 489q0 69 8.5 143t27.5 154t47.5 154t71.5 140.5t95.5 115.5t123.5 78t152 29q87 0 156 -30t113.5 -79t73.5 -117t41.5 -139.5t12.5 -149.5q0 -69 -8.5 -142.5t-27.5 -153.5t-47 -153t-71 -139.5t-95.5 -115.5t-123.5 -78t-153 -29q-87 0 -156 29.5t-113.5 78.5 t-73.5 116t-41.5 138.5t-12.5 149.5zM250 489q0 -49 5.5 -94.5t21 -95.5t40 -86t67.5 -60t99 -24q78 0 140.5 51.5t98 127.5t59.5 171.5t32 173t8 142.5q0 49 -5 94t-20.5 95.5t-40 86.5t-67.5 60t-100 24q-66 0 -120.5 -35.5t-90 -95.5t-61.5 -130.5t-40 -148.5t-20 -140.5 t-6 -115.5z" />
<glyph unicode="1" d="M319 1016l25 155l467 125l-246 -1296h-157l204 1092z" />
<glyph unicode="2" d="M37 0l14 168q69 57 156 126.5t143 113.5t121.5 98.5t106 93t82 85t64 86t36.5 84.5t14 91q0 98 -66.5 153.5t-166.5 55.5q-77 0 -157 -31.5t-146 -83.5l-39 140q73 60 169.5 94.5t190.5 34.5q105 0 192.5 -40t142 -120.5t54.5 -187.5q0 -48 -9 -92t-31 -87.5t-46 -80 t-67 -80.5t-80.5 -79t-100.5 -85.5t-112.5 -89t-130.5 -102t-142 -111.5h639l-12 -154h-819z" />
<glyph unicode="3" d="M39 86l51 152q76 -51 168.5 -82t179.5 -31q75 0 140 26t108 82.5t43 133.5q0 61 -29.5 104.5t-78.5 66t-100 32.5t-107 10q-32 0 -138 -9l21 138q38 5 71.5 11t83.5 18t91 26t85 36.5t73.5 48.5t49 62.5t19.5 77.5q0 58 -35.5 97.5t-84.5 55t-105 15.5q-75 0 -158.5 -26 t-150.5 -68l-39 141q74 49 171.5 77t188.5 28q70 0 135.5 -16t123.5 -48.5t93 -90t35 -132.5q0 -62 -22.5 -114.5t-58 -89t-85.5 -66t-100 -47.5t-107 -31q66 -6 124 -25t106.5 -52t77 -87.5t28.5 -122.5q0 -121 -69 -218t-177.5 -147.5t-230.5 -50.5q-94 0 -207.5 31.5 t-183.5 83.5z" />
<glyph unicode="4" d="M37 326l2 114l741 850h174l-155 -819h194l-24 -145h-201l-61 -326h-152l61 326h-579zM227 471h420l117 619z" />
<glyph unicode="5" d="M51 80l51 156q179 -115 342 -115q123 0 204 72.5t81 195.5q0 58 -23 103t-57.5 70.5t-81.5 41.5t-88.5 21.5t-85.5 5.5q-123 0 -205 -27l-28 31l178 645h653l-12 -160h-530l-97 -356h66q70 0 135.5 -11t129 -37t110.5 -65.5t75.5 -102t28.5 -140.5q0 -195 -133 -318 t-330 -123q-90 0 -202.5 32t-180.5 81z" />
<glyph unicode="6" d="M84 426q0 171 66.5 324t179.5 264t261 185.5t312 100.5l25 -141q-220 -37 -394.5 -159.5t-254.5 -319.5l6 -2q137 106 313 106q156 0 249 -97t93 -253q0 -196 -124 -329.5t-316 -133.5q-199 0 -307.5 127t-108.5 328zM244 410q0 -126 70.5 -207.5t195.5 -81.5 q122 0 195 86t73 211q0 105 -64.5 162t-172.5 57q-72 0 -146 -24t-129 -66q-22 -62 -22 -137z" />
<glyph unicode="7" d="M127 0l725 1120h-682l27 160h829l2 -139l-731 -1141h-170z" />
<glyph unicode="8" d="M57 299q0 130 82.5 222.5t214.5 142.5q-188 117 -188 268q0 113 60 200.5t157 133t211 45.5q80 0 150.5 -20t127 -59t89 -103.5t32.5 -147.5q0 -234 -268 -350q93 -60 147 -125t54 -154q0 -122 -64 -210.5t-162 -129.5t-215 -41q-63 0 -122.5 11t-115.5 36t-98 62t-67 93 t-25 126zM221 326q0 -55 25.5 -97.5t68 -66.5t90.5 -35.5t99 -11.5q109 0 182.5 54.5t73.5 160.5q0 167 -293 270q-103 -33 -174.5 -103.5t-71.5 -170.5zM332 954q0 -50 27.5 -94t74 -76t90 -53t92.5 -37q94 37 152.5 102.5t58.5 157.5q0 100 -69.5 155.5t-171.5 55.5 q-99 0 -176.5 -57t-77.5 -154z" />
<glyph unicode="9" d="M131 844q0 196 124 329.5t316 133.5q199 0 307.5 -127t108.5 -328q0 -171 -66.5 -324t-179.5 -264.5t-261 -186t-312 -100.5l-25 142q221 37 395.5 159.5t254.5 319.5l-7 2q-137 -106 -313 -106q-156 0 -249 97t-93 253zM293 860q0 -105 64.5 -162t172.5 -57 q71 0 145.5 24.5t129.5 65.5q22 62 22 137q0 126 -70.5 208.5t-195.5 82.5q-122 0 -195 -87t-73 -212z" />
<glyph unicode=":" horiz-adv-x="450" d="M25 102q0 53 38.5 91t96.5 38q56 0 92.5 -37.5t36.5 -91.5t-36.5 -93.5t-92.5 -39.5q-57 0 -96 39.5t-39 93.5zM147 733q0 53 39 91t97 38q56 0 92.5 -37.5t36.5 -91.5t-36.5 -93.5t-92.5 -39.5q-57 0 -96.5 39.5t-39.5 93.5z" />
<glyph unicode=";" horiz-adv-x="450" d="M-119 -260q36 20 76 48t84 65t72 79.5t28 79.5q0 20 -11.5 40t-34 39t-37 29t-38.5 25q14 48 53 76.5t91 28.5q68 0 114 -50.5t46 -119.5q0 -66 -38 -132t-101 -120t-122.5 -93t-123.5 -71zM147 733q0 53 39 91t97 38q56 0 92.5 -37.5t36.5 -91.5t-36.5 -93.5 t-92.5 -39.5q-57 0 -96.5 39.5t-39.5 93.5z" />
<glyph unicode="&#x3c;" horiz-adv-x="970" d="M68 422v121l821 387v-162l-608 -276v-21l610 -274v-162z" />
<glyph unicode="=" horiz-adv-x="950" d="M70 221l10 146h794l11 -146h-815zM70 739h815l-11 -145h-794z" />
<glyph unicode="&#x3e;" horiz-adv-x="970" d="M59 35v162l611 274v21l-609 276v162l822 -387v-121z" />
<glyph unicode="?" horiz-adv-x="729" d="M104 102q0 53 39 91t97 38q56 0 92.5 -37.5t36.5 -91.5t-36.5 -93.5t-92.5 -39.5q-57 0 -96.5 39.5t-39.5 93.5zM172 594q0 43 14.5 77.5t36 57.5t56.5 42.5t65.5 31t73.5 24.5q39 12 54 17t46 16.5t44.5 21t30.5 24t23.5 33t6.5 40.5q0 48 -30.5 83t-78.5 53t-94.5 26 t-89.5 8q-35 0 -97 -4l31 158q40 6 92 6q74 0 145 -20.5t128 -58.5t92 -99t35 -134q0 -57 -17 -104t-42 -76.5t-63.5 -54t-71.5 -37.5t-75 -25q-111 -33 -141 -51q-50 -31 -51 -86q0 -26 15 -58t28.5 -50t38.5 -49l-86 -19q-119 93 -119 207z" />
<glyph unicode="@" horiz-adv-x="1695" d="M76 496q0 218 105 404.5t289 296.5t404 110q150 0 287 -48t240.5 -134.5t165 -215.5t61.5 -282q0 -126 -33.5 -229.5t-90.5 -169.5t-129.5 -102t-151.5 -36q-83 0 -145 39t-91 111q-106 -121 -242 -121q-129 0 -212.5 96.5t-83.5 239.5q0 125 57 232t157 170t220 63 q88 0 194 -48l142 48l-99 -498q-21 -105 10 -162t115 -57q125 0 209 112.5t84 311.5q0 133 -56 247t-148.5 190.5t-212 119.5t-247.5 43q-145 0 -277 -59.5t-226 -158t-149.5 -233t-55.5 -278.5q0 -185 82 -339t231.5 -244.5t335.5 -90.5q118 0 252 41l23 -76 q-143 -47 -279 -47q-157 0 -294.5 59t-234 159.5t-151.5 240t-55 295.5zM590 471q0 -104 56.5 -167.5t141.5 -63.5q89 0 177 75l82 410q-32 34 -80 55t-101 21q-119 0 -197.5 -101t-78.5 -229z" />
<glyph unicode="A" horiz-adv-x="1191" d="M-98 0l768 1278h194l226 -1278h-179l-55 334h-567l-197 -334h-190zM383 492h448l-98 598z" />
<glyph unicode="B" horiz-adv-x="1124" d="M72 0l247 1280h402q185 0 283 -90.5t98 -226.5q0 -120 -76 -203.5t-213 -122.5q107 -36 162 -106.5t55 -163.5q0 -163 -128 -265t-382 -102h-448zM276 162h277q151 0 225 53.5t74 151.5q0 92 -72.5 144t-187.5 52h-238zM385 717h223q147 0 230.5 58t83.5 159 q0 82 -60.5 133t-173.5 51h-227z" />
<glyph unicode="C" horiz-adv-x="1222" d="M102 547q0 218 93.5 391.5t263 272t385.5 98.5q188 0 401 -78l-33 -164q-201 88 -378 88q-164 0 -290 -78t-193.5 -212t-67.5 -302q0 -204 119 -321t317 -117q162 0 334 86l39 -154q-78 -39 -187.5 -63.5t-197.5 -24.5q-172 0 -309 69t-216.5 201.5t-79.5 307.5z" />
<glyph unicode="D" horiz-adv-x="1312" d="M72 0l247 1280h308q127 0 238 -35.5t195.5 -102t133.5 -171.5t49 -236q0 -119 -28.5 -226t-89.5 -200.5t-150.5 -162t-219.5 -107.5t-288 -39h-395zM276 162h230q157 0 282.5 64t201 191.5t75.5 297.5q0 200 -121 299t-340 102l-143 2z" />
<glyph unicode="E" horiz-adv-x="1071" d="M72 0l247 1280h811l-30 -162h-639l-76 -395h533l-33 -162h-531l-78 -399h637l-30 -162h-811z" />
<glyph unicode="F" horiz-adv-x="1013" d="M72 0l247 1280h791l-31 -164h-618l-80 -416h512l-33 -161h-510l-104 -539h-174z" />
<glyph unicode="G" horiz-adv-x="1304" d="M102 547q0 218 92.5 391.5t262.5 272t387 98.5q188 0 401 -78l-33 -164q-201 88 -378 88q-165 0 -291.5 -78t-193 -212t-66.5 -302q0 -203 121 -320.5t321 -117.5q112 0 227 39l68 330h-338l33 161h508l-119 -604q-187 -82 -395 -82q-173 0 -310.5 69t-217 201.5 t-79.5 307.5z" />
<glyph unicode="H" horiz-adv-x="1353" d="M72 0l247 1280h175l-109 -557h684l107 557h174l-248 -1280h-174l110 565h-684l-108 -565h-174z" />
<glyph unicode="I" horiz-adv-x="505" d="M76 0l248 1280h172l-248 -1280h-172z" />
<glyph unicode="J" horiz-adv-x="831" d="M-57 80l57 158q134 -113 268 -113q104 0 159.5 67t78.5 181l176 907h172l-182 -934q-34 -175 -135.5 -276t-272.5 -101q-87 0 -173.5 28.5t-147.5 82.5z" />
<glyph unicode="K" horiz-adv-x="1110" d="M72 0l247 1280h175l-119 -612h2l653 612h221l-706 -639l469 -641h-207l-440 608h-2l-119 -608h-174z" />
<glyph unicode="L" horiz-adv-x="1011" d="M72 0l247 1280h175l-215 -1112h618l-33 -168h-792z" />
<glyph unicode="M" horiz-adv-x="1576" d="M16 0l303 1280h230l192 -1047l600 1047h242l-209 -1280h-178l186 1053l-591 -1035h-181l-178 1020l-233 -1038h-183z" />
<glyph unicode="N" horiz-adv-x="1357" d="M72 0l241 1280h217l459 -1067l197 1067h168l-244 -1292h-209l-463 1081l-196 -1069h-170z" />
<glyph unicode="O" horiz-adv-x="1462" d="M106 569q0 147 54.5 282.5t148.5 237t229.5 162t288.5 60.5q170 0 306 -73.5t214 -210.5t78 -314q0 -117 -34.5 -228t-100 -204t-153 -163t-199.5 -109.5t-233 -39.5q-171 0 -307 74t-214 211.5t-78 314.5zM285 584q0 -205 121.5 -333t318.5 -128q117 0 217 48.5 t165.5 128.5t102.5 183t37 213q0 205 -120.5 332t-317.5 127q-156 0 -278 -82t-184 -211t-62 -278z" />
<glyph unicode="P" horiz-adv-x="1099" d="M72 0l247 1280h328q111 0 201.5 -32.5t147 -86t86.5 -120t30 -136.5q0 -103 -35.5 -189.5t-103.5 -151t-173 -101t-237 -37.5l-235 -2l-84 -424h-172zM356 588h228q89 1 157.5 25t109 65.5t61 91.5t20.5 107q0 108 -82.5 174.5t-231.5 66.5h-157z" />
<glyph unicode="Q" horiz-adv-x="1462" d="M106 567q0 147 54.5 282.5t148.5 237t229.5 162t288.5 60.5q170 0 306 -73t214 -209.5t78 -313.5q0 -232 -132.5 -427t-344.5 -274l359 -233l-107 -144l-479 336q-4 -2 -16 -2q-171 0 -307 74t-214 211t-78 313zM285 584q0 -205 121.5 -333t318.5 -128q117 0 217 48.5 t165.5 128.5t102.5 183t37 213q0 205 -120.5 332t-317.5 127q-118 0 -218 -48t-166 -127.5t-103 -182.5t-37 -213z" />
<glyph unicode="R" horiz-adv-x="1134" d="M72 0l247 1280h334q210 0 327.5 -101.5t117.5 -252.5q0 -85 -29 -154.5t-80 -118t-115.5 -80t-140.5 -47.5l228 -526h-199l-205 506l-219 -14l-92 -492h-174zM365 645l182 4q169 3 271 67t102 189q0 103 -75 159t-210 56h-174z" />
<glyph unicode="S" horiz-adv-x="1038" d="M23 90l34 172q100 -60 213.5 -98.5t206.5 -38.5q128 0 209.5 59t81.5 156q0 76 -62.5 129.5t-209.5 114.5q-151 61 -234.5 140.5t-83.5 201.5q0 120 62.5 209t161 131.5t216.5 42.5q206 0 404 -97l-35 -168q-83 45 -189.5 77t-193.5 32q-112 0 -185 -54.5t-73 -152.5 q0 -72 60.5 -120.5t209.5 -108.5q155 -62 237.5 -144.5t82.5 -214.5q0 -117 -61.5 -207t-167 -137t-236.5 -47q-120 0 -238 34.5t-210 88.5z" />
<glyph unicode="T" horiz-adv-x="1144" d="M164 1114l33 166h1069l-31 -166h-449l-217 -1114h-172l217 1114h-450z" />
<glyph unicode="U" horiz-adv-x="1265" d="M125 371q0 71 16 157l148 752h174l-146 -752q-16 -74 -16 -118q0 -140 82.5 -209.5t228.5 -69.5q142 0 228.5 87.5t115.5 234.5l162 827h172l-162 -842q-43 -221 -175.5 -345t-350.5 -124q-212 0 -344.5 103t-132.5 299z" />
<glyph unicode="V" horiz-adv-x="1171" d="M166 1280h178l178 -1090l637 1090h191l-766 -1278h-193z" />
<glyph unicode="W" horiz-adv-x="1875" d="M240 1280h184l70 -1036l505 1036h201l105 -1036l469 1036h178l-611 -1280h-172l-108 1055l-533 -1055h-172z" />
<glyph unicode="X" horiz-adv-x="1175" d="M-66 0l592 649l-329 631h200l244 -508l436 508h217l-577 -633l344 -647h-201l-258 530l-455 -530h-213z" />
<glyph unicode="Y" horiz-adv-x="1105" d="M182 1280h189l225 -606l444 606h199l-594 -776l-98 -504h-166l100 516z" />
<glyph unicode="Z" horiz-adv-x="1067" d="M-43 0l27 131l905 985h-703l31 164h928l-25 -135l-901 -981h709l-31 -164h-940z" />
<glyph unicode="[" horiz-adv-x="749" d="M170 -455v1837h561v-133h-416v-1571h416v-133h-561z" />
<glyph unicode="\" horiz-adv-x="444" d="M162 1438h119l135 -1846h-119z" />
<glyph unicode="]" horiz-adv-x="749" d="M20 -322h416v1571h-416v133h562v-1837h-562v133z" />
<glyph unicode="^" horiz-adv-x="806" d="M203 1065l309 383h180l162 -383h-149l-119 260h-4l-217 -260h-162z" />
<glyph unicode="_" horiz-adv-x="944" d="M-121 0h993v-152h-993v152z" />
<glyph unicode="`" horiz-adv-x="806" d="M328 1436h211l145 -371h-129z" />
<glyph unicode="a" horiz-adv-x="935" d="M27 240q0 59 21 109t69 93t119 72q72 30 180 44q80 11 174 10q33 0 67 -1l7 33q5 27 5 50q0 69 -42 109q-56 54 -181 54q-64 0 -140 -22.5t-142 -57.5l-14 156q63 34 151 56t172 22q208 0 301 -101q65 -71 65 -190q0 -51 -12 -111l-67 -319q-9 -38 -9 -63q0 -21 6 -35 q13 -30 72 -29l-36 -142q-14 -1 -27 -1q-38 0 -70 8q-42 12 -63.5 34.5t-32.5 44.5t-14 46h-2q-60 -63 -135 -100.5t-148 -37.5q-118 0 -196 82t-78 187zM205 260q0 -64 43.5 -102.5t111.5 -38.5q122 0 228 86l49 252q-214 -7 -323 -58t-109 -139z" />
<glyph unicode="b" horiz-adv-x="1077" d="M55 0l264 1380l175 27l-101 -533q86 57 125 73q56 22 121 22q163 0 267 -119.5t104 -298.5q0 -157 -71.5 -290.5t-196 -212.5t-273.5 -79q-117 0 -244 60zM262 213q93 -96 227 -96q99 0 180 61.5t123 155t42 196.5q0 129 -71.5 209t-176.5 80q-59 0 -108 -21t-111 -61z " />
<glyph unicode="c" horiz-adv-x="923" d="M74 420q0 142 63 266.5t182.5 203.5t268.5 79q180 0 336 -90l-35 -162q-165 100 -305 100q-80 0 -145.5 -36t-105.5 -94t-61.5 -124.5t-21.5 -132.5q0 -153 79 -229t212 -76q109 0 217 51l28 -151q-45 -25 -120.5 -40.5t-141.5 -15.5q-94 0 -175 29t-142.5 84t-97 142 t-35.5 196z" />
<glyph unicode="d" horiz-adv-x="1077" d="M70 387q0 157 71 290.5t196 212.5t273 79q117 0 244 -60l88 471l172 27l-272 -1407h-168l12 63q-41 -28 -57 -37.5t-50.5 -27t-66.5 -23.5t-72 -6q-162 0 -266 119.5t-104 298.5zM246 408q0 -129 71.5 -209t176.5 -80q59 0 108 21t111 61l104 524q-93 96 -227 96 q-99 0 -179.5 -61.5t-122.5 -155t-42 -196.5z" />
<glyph unicode="e" horiz-adv-x="968" d="M74 420q0 102 35.5 200t98.5 176t158.5 125.5t206.5 47.5q151 0 243.5 -85.5t92.5 -230.5q0 -107 -41 -200l-620 -4v-19q0 -153 80 -229t213 -76q109 0 217 51l28 -151q-45 -25 -120.5 -40.5t-141.5 -15.5q-194 0 -322 119.5t-128 331.5zM270 571l463 4q8 32 8 60 q0 91 -50.5 138.5t-141.5 47.5q-101 0 -177 -68.5t-102 -181.5z" />
<glyph unicode="f" horiz-adv-x="647" d="M82 797l6 106l184 45l29 144q32 161 108 247t224 86q60 0 122 -19.5t105 -51.5l-72 -146q-88 58 -165 58q-121 0 -154 -179l-29 -149h265l-7 -152h-286l-154 -786h-168l152 784z" />
<glyph unicode="g" horiz-adv-x="978" d="M-121 -231q0 88 67.5 161.5t188.5 104.5q-37 26 -55.5 54.5t-18.5 70.5q0 58 47.5 109.5t118.5 80.5q-114 90 -114 250q0 97 48.5 181t137 135.5t197.5 52.5q125 0 215 -64l299 33l4 -166l-195 16q37 -61 37 -145q0 -98 -47 -182t-135 -135.5t-197 -51.5q-95 0 -174 31 q-25 -12 -46 -36.5t-21 -51.5q0 -50 51.5 -73.5t185.5 -49.5l31 -6q158 -32 240.5 -98t82.5 -176q0 -145 -133.5 -233.5t-353.5 -88.5q-214 0 -337.5 79t-123.5 198zM45 -195q0 -77 89 -124.5t222 -47.5q140 0 223 44t83 116q0 103 -218 146q-135 26 -217 49 q-77 -17 -129.5 -69.5t-52.5 -113.5zM276 606q0 -90 54 -145t157 -55q88 0 148.5 63.5t60.5 167.5q0 88 -54 143.5t-159 55.5q-86 0 -146.5 -63.5t-60.5 -166.5z" />
<glyph unicode="h" horiz-adv-x="1058" d="M55 0l269 1380l174 27l-113 -582q156 142 305 142q123 0 198 -69.5t75 -190.5q0 -34 -11 -91l-121 -616h-167l112 580q8 54 8 82q0 151 -172 151q-130 0 -252 -106l-137 -707h-168z" />
<glyph unicode="i" horiz-adv-x="458" d="M55 0l181 924l172 26l-185 -950h-168zM274 1266q0 51 29.5 85.5t83.5 34.5t81.5 -34.5t27.5 -85.5t-28.5 -86t-82.5 -35t-82.5 35t-28.5 86z" />
<glyph unicode="j" horiz-adv-x="452" d="M-184 -391q97 42 148.5 116.5t80.5 223.5v-1l45 231q48 244 97 495l49 250l172 26q-13 -65 -33.5 -169.5t-63.5 -326t-71 -362.5l-25 -132v1q-38 -199 -106.5 -302.5t-202.5 -168.5zM274 1266q0 51 29.5 85.5t83.5 34.5t81.5 -34.5t27.5 -85.5t-28.5 -86t-82.5 -35 t-82.5 35t-28.5 86z" />
<glyph unicode="k" horiz-adv-x="933" d="M55 0l269 1380l174 27l-174 -877h4l446 408h232l-504 -438l336 -500h-207l-312 485h-4l-92 -485h-168z" />
<glyph unicode="l" horiz-adv-x="458" d="M55 0l269 1380l174 27l-275 -1407h-168z" />
<glyph unicode="m" horiz-adv-x="1624" d="M55 0l183 942l174 27l-25 -123q148 123 283 123q94 0 162 -42t96 -118q175 160 329 160q121 0 196 -69.5t75 -180.5q0 -47 -15 -125l-116 -594h-168l108 557q1 7 6 31.5t8 47t3 38.5q0 66 -43 100.5t-121 34.5q-124 0 -242 -102l-6 -31l-6 -31l-127 -645h-168l111 557 q16 72 16 117q0 66 -43 100.5t-121 34.5q-62 0 -128.5 -30t-113.5 -70l-139 -709h-168z" />
<glyph unicode="n" horiz-adv-x="1058" d="M55 0l183 942l174 27l-27 -144q158 144 305 144q121 0 197 -70t76 -180q0 -47 -15 -125l-117 -594h-167l108 557q1 6 5.5 31.5t7.5 47t3 38.5q0 66 -42.5 100.5t-120.5 34.5q-66 0 -142 -36.5t-127 -88.5l-133 -684h-168z" />
<glyph unicode="o" horiz-adv-x="1081" d="M74 406q0 108 37.5 209t104 180t166 126.5t214.5 47.5q184 0 300 -127t116 -312q0 -146 -64 -273t-186 -206.5t-275 -79.5q-183 0 -298 124t-115 311zM242 416q0 -133 70.5 -215t195.5 -82q78 0 143 37t106 96t63 129t22 141q0 132 -70.5 215.5t-193.5 83.5 q-104 0 -183 -64.5t-116 -155t-37 -185.5z" />
<glyph unicode="p" horiz-adv-x="1077" d="M-37 -477l275 1419l174 27l-19 -95q86 57 125 73q56 22 121 22q163 0 267 -119.5t104 -298.5q0 -157 -71.5 -290.5t-196 -212.5t-273.5 -79q-117 0 -244 60l-94 -506h-168zM262 213q93 -96 227 -96q99 0 180 61.5t123 155t42 196.5q0 129 -71.5 209t-176.5 80 q-59 0 -108 -21t-111 -61z" />
<glyph unicode="q" horiz-adv-x="1077" d="M70 387q0 157 71 290.5t196 212.5t273 79q117 0 244 -60l176 60l-278 -1446h-168l102 540q-41 -28 -57 -37.5t-50.5 -27t-66.5 -23.5t-72 -6q-162 0 -266 119.5t-104 298.5zM246 408q0 -129 71.5 -209t176.5 -80q59 0 108 21t111 61l104 524q-93 96 -227 96 q-99 0 -179.5 -61.5t-122.5 -155t-42 -196.5z" />
<glyph unicode="r" horiz-adv-x="780" d="M55 0l183 942l174 27l-29 -156q49 71 123 113.5t145 42.5q104 0 168 -45l-47 -164q-83 49 -168 49q-143 0 -254 -160l-127 -649h-168z" />
<glyph unicode="s" horiz-adv-x="804" d="M-12 59l47 162q179 -102 321 -102q76 0 129.5 34.5t53.5 100.5q0 28 -14 51t-45.5 43t-60 33.5t-79.5 34.5q-54 22 -91 42.5t-71.5 51t-51.5 72t-17 94.5q0 131 99 212t236 81q173 0 349 -90l-48 -162q-92 52 -164.5 76t-148.5 24q-69 0 -115.5 -31t-46.5 -88 q0 -34 24.5 -61t54.5 -42.5t90 -41.5q18 -8 28 -12q54 -23 90 -43.5t72.5 -52t54.5 -75t18 -98.5q0 -136 -104 -219.5t-256 -83.5q-179 0 -354 90z" />
<glyph unicode="t" horiz-adv-x="704" d="M80 797l6 106l182 47l47 203h160l-47 -215h279l-7 -152h-307l-110 -507q-13 -52 -13 -64q0 -51 36.5 -73.5t90.5 -22.5q65 0 144 28l28 -147q-95 -31 -192 -31q-115 0 -191.5 58t-76.5 170q0 22 14 94l110 495z" />
<glyph unicode="u" horiz-adv-x="1058" d="M96 219q0 47 15 125l116 594h168l-108 -557q-1 -7 -6 -31.5t-8 -47t-3 -38.5q0 -66 43 -100.5t121 -34.5q66 0 141.5 36t126.5 89l134 684h168l-183 -942l-174 -27l27 144q-158 -144 -305 -144q-121 0 -197 70t-76 180z" />
<glyph unicode="v" horiz-adv-x="903" d="M96 938h172l125 -731l414 731h184l-559 -940h-156z" />
<glyph unicode="w" horiz-adv-x="1368" d="M111 938h178l53 -694l365 696h151l86 -698l311 696h193l-467 -942h-154l-90 698l-379 -698h-153z" />
<glyph unicode="x" horiz-adv-x="845" d="M-88 0l410 479l-205 459h178l143 -344l267 344h192l-377 -455l223 -483h-180l-157 375l-293 -375h-201z" />
<glyph unicode="y" horiz-adv-x="903" d="M-217 -446l82 143q54 -45 112 -45q41 0 76 32.5t90 122.5l129 211l-176 920h172l125 -731l414 731h184l-571 -963l-131 -227q-86 -149 -155.5 -206.5t-162.5 -57.5q-54 0 -106 21.5t-82 48.5z" />
<glyph unicode="z" horiz-adv-x="827" d="M-53 0l22 117l639 665h-491l30 156h730l-23 -117l-639 -665h510l-31 -156h-747z" />
<glyph unicode="{" horiz-adv-x="694" d="M43 473l6 82q135 9 192.5 45t57.5 123q0 53 -24 123t-48 147.5t-24 147.5q0 136 113.5 200.5t342.5 75.5v-117q-163 -12 -234 -47.5t-71 -101.5q0 -42 15.5 -93.5t34 -93.5t34 -100t15.5 -112q0 -118 -72 -190t-205 -79v-20q133 -9 205 -81t72 -189q0 -53 -15.5 -110.5 t-34 -99.5t-34 -92t-15.5 -90q0 -70 71 -107.5t234 -47.5v-115q-228 9 -342 73t-114 201q0 70 24 147.5t48 147.5t24 123q0 85 -57.5 121t-192.5 47z" />
<glyph unicode="|" horiz-adv-x="464" d="M164 -408v1846h137v-1846h-137z" />
<glyph unicode="}" horiz-adv-x="694" d="M35 -354q162 10 233.5 47t71.5 106q0 50 -24 116t-48 138.5t-24 139.5q0 118 70 189.5t204 80.5v20q-134 7 -204 79t-70 190q0 68 24 141t48 139.5t24 118.5q0 65 -71.5 101t-233.5 48v117q230 -11 343.5 -75t113.5 -201q0 -70 -25 -147.5t-49.5 -147.5t-24.5 -123 q0 -86 58 -122.5t194 -45.5l6 -82l-6 -82q-136 -11 -194 -47t-58 -121q0 -53 24.5 -123t49.5 -147.5t25 -147.5q0 -137 -114 -201t-343 -73v115z" />
<glyph unicode="~" horiz-adv-x="806" d="M39 383q13 45 26 78.5t32.5 68.5t42.5 57.5t56 37t72 14.5q54 0 104.5 -21.5t81.5 -47t66.5 -47t63.5 -21.5q34 0 57.5 38.5t34.5 80.5h125q-17 -56 -34.5 -97t-44 -80t-64.5 -59t-87 -20q-54 0 -104.5 21.5t-81 47t-66 47t-63.5 21.5q-34 0 -57.5 -38.5t-34.5 -80.5 h-125z" />
<glyph unicode="&#xa1;" horiz-adv-x="563" d="M76 -31l235 916l99 -11l-129 -925zM287 1176q0 54 37 93.5t94 39.5t95 -39.5t38 -93.5t-37.5 -91.5t-95.5 -37.5q-57 0 -94 37.5t-37 91.5z" />
<glyph unicode="&#xa2;" horiz-adv-x="911" d="M74 420q0 101 38 199t105 175.5t167 125t214 47.5q24 0 70 -4l65 190h105l-72 -209q101 -27 176 -88l-72 -145q-66 59 -153 84q0 1 -57 -166t-114 -335l-57 -167q32 -4 52 -4q126 0 231 51v-156q-114 -51 -248 -51q-42 0 -86 6l-76 -225h-104l84 250q-123 46 -195.5 154 t-72.5 268zM250 430q0 -205 145 -276l223 659q-10 2 -34 2q-80 0 -145.5 -36t-105.5 -93t-61.5 -123.5t-21.5 -132.5z" />
<glyph unicode="&#xa3;" horiz-adv-x="1044" d="M-27 100q133 21 190 71.5t79 162.5q20 111 34 227h-182l-4 111h199q24 179 37 241q37 196 159.5 297t290.5 101q185 0 328 -119l-72 -141q-127 110 -272 110q-108 0 -174.5 -67t-89.5 -181q-20 -121 -33 -241h391l-8 -111h-397q-17 -139 -35 -227q-9 -32 -21 -80 q62 -61 136.5 -96t136.5 -35q73 0 125 45t92 151l123 -40q-39 -148 -131.5 -229t-210.5 -83q-163 -3 -330 168q-47 -70 -131.5 -111.5t-216.5 -60.5z" />
<glyph unicode="&#xa4;" horiz-adv-x="919" d="M66 1032l98 98l123 -122q74 47 174 47q107 0 178 -49l117 116l96 -96l-121 -121q45 -78 45 -170q0 -96 -45 -172l131 -131l-98 -98l-129 129q-74 -47 -174 -47q-107 0 -174 45l-119 -119l-96 96l118 119q-47 75 -47 178q0 99 47 174zM268 735q0 -81 52.5 -138.5 t140.5 -57.5q86 0 138 57.5t52 138.5q0 83 -52 140t-138 57q-88 0 -140.5 -57t-52.5 -140z" />
<glyph unicode="&#xa5;" horiz-adv-x="1112" d="M72 268l28 111h357l30 160h-356l16 112h314l-279 629h191l231 -559l436 559h199l-510 -629h303l-26 -112h-357l-31 -160h355l-15 -111h-360l-51 -268h-166l51 268h-360z" />
<glyph unicode="&#xa6;" horiz-adv-x="464" d="M164 -285v686h137v-686h-137zM164 629v686h137v-686h-137z" />
<glyph unicode="&#xa7;" horiz-adv-x="964" d="M57 -14l74 149q55 -52 141 -85.5t162 -33.5q67 0 122.5 30t55.5 91q0 27 -14.5 52t-34.5 43t-57 38t-64.5 32.5t-74.5 31.5q-52 21 -84.5 36t-75 40.5t-66.5 50.5t-41.5 60.5t-17.5 76.5q0 99 82.5 169t191.5 95q-43 37 -65.5 78t-22.5 102q0 125 95 201t235 76 q95 0 190 -27.5t164 -72.5l-73 -150q-58 40 -140 68t-149 28q-28 0 -53 -5t-48 -16t-37 -32.5t-14 -50.5q0 -38 36 -72.5t70.5 -52t113.5 -51.5q4 -2 6.5 -3t5.5 -2.5t6 -2.5q44 -19 71.5 -32t66.5 -34t62.5 -41.5t47 -47.5t34.5 -59t11 -69q0 -103 -73.5 -171t-184.5 -97 q71 -68 71 -166q0 -134 -101.5 -215.5t-246.5 -81.5q-103 0 -208 35t-169 88zM246 641q0 -27 19.5 -52t57.5 -47.5t65.5 -36t74.5 -32.5t53 -22l42 -17.5t51 -22.5t40 -22q64 28 109 71.5t45 100.5q0 20 -9.5 38.5t-29.5 36t-37.5 30t-48.5 27.5t-47 22t-47.5 20t-36.5 15 q-13 6 -59.5 24.5t-71.5 32.5q-34 -17 -55 -29t-52 -34t-47 -48t-16 -55z" />
<glyph unicode="&#xa8;" horiz-adv-x="806" d="M219 1202q0 52 35 89.5t88 37.5q54 0 89.5 -37.5t35.5 -89.5q0 -54 -35.5 -91.5t-89.5 -37.5q-53 0 -88 38t-35 91zM639 1202q0 53 34.5 90t88.5 37t88.5 -37t34.5 -90q0 -54 -34.5 -91.5t-88.5 -37.5t-88.5 37.5t-34.5 91.5z" />
<glyph unicode="&#xa9;" horiz-adv-x="1490" d="M119 637q0 137 53 261t142 214.5t213 143.5t261 53q182 0 336.5 -90t244 -244.5t89.5 -337.5q0 -182 -89.5 -336t-244 -244t-336.5 -90q-137 0 -261 53t-213 143t-142 214t-53 260zM180 637q0 -165 81.5 -306t221.5 -223.5t305 -82.5t305.5 82.5t222 223.5t81.5 306 t-81.5 306.5t-222 224.5t-305.5 83t-305 -83t-221.5 -224.5t-81.5 -306.5zM449 635q0 172 103.5 276.5t268.5 104.5q138 0 234 -58l-41 -110q-89 57 -193 57q-113 0 -179.5 -71t-66.5 -193q0 -124 67.5 -198t180.5 -74t201 67l25 -121q-91 -57 -230 -57q-166 0 -268 102 t-102 275z" />
<glyph unicode="&#xaa;" horiz-adv-x="720" d="M86 711q0 131 122.5 207.5t364.5 76.5l9 39q17 77 -18 115.5t-115 38.5q-99 0 -226 -72l-24 119q138 76 262 76q40 0 75 -5.5t69 -18t58 -33.5t41.5 -52.5t19.5 -74.5t-7 -99l-55 -274q-21 -110 40 -213l-147 -33q-28 44 -43 110h-6q-112 -108 -217 -108q-87 0 -145 60.5 t-58 140.5zM225 727q0 -41 34.5 -68.5t80.5 -27.5q51 0 98.5 20t79.5 49l37 193q-330 -15 -330 -166z" />
<glyph unicode="&#xab;" horiz-adv-x="1187" d="M27 387l36 184l572 316l4 -123l-449 -299v-2l326 -283l-39 -108zM569 383l37 192l600 332v-131l-467 -311v-2l340 -295l-39 -117z" />
<glyph unicode="&#xac;" horiz-adv-x="991" d="M82 530l6 146h821v-436h-143v290h-684z" />
<glyph unicode="&#xad;" horiz-adv-x="634" d="M74 418v157h504v-157h-504z" />
<glyph unicode="&#xae;" horiz-adv-x="1490" d="M119 637q0 137 53 261t142 214.5t213 143.5t261 53q182 0 336.5 -90t244 -244.5t89.5 -337.5q0 -182 -89.5 -336t-244 -244t-336.5 -90q-137 0 -261 53t-213 143t-142 214t-53 260zM180 637q0 -165 81.5 -306t221.5 -223.5t305 -82.5t305.5 82.5t222 223.5t81.5 306 t-81.5 306.5t-222 224.5t-305.5 83t-305 -83t-221.5 -224.5t-81.5 -306.5zM530 283v725h263q133 0 205.5 -60t72.5 -168q0 -156 -139 -211l178 -286h-145l-158 258l-150 -9v-249h-127zM655 639l123 2q166 3 166 131q0 64 -41 93.5t-125 29.5h-123v-256z" />
<glyph unicode="&#xaf;" horiz-adv-x="806" d="M252 1102l29 108h544l-10 -108h-563z" />
<glyph unicode="&#xb0;" horiz-adv-x="772" d="M145 948q0 147 109.5 254t261.5 107q138 0 223.5 -83.5t85.5 -219.5q0 -150 -110 -255.5t-266 -105.5q-136 0 -220 84t-84 219zM254 952q0 -93 57.5 -148.5t153.5 -55.5q104 0 178 75t74 178q0 94 -59 149.5t-154 55.5q-104 0 -177 -74.5t-73 -179.5z" />
<glyph unicode="&#xb1;" horiz-adv-x="991" d="M82 0l6 145h819l6 -145h-831zM82 469l6 145h340v287h143v-287h336l6 -145h-342v-287h-143v287h-346z" />
<glyph unicode="&#xb2;" horiz-adv-x="675" d="M18 559q-1 0 2.5 29.5t7.5 58.5l3 29q52 39 131 96.5t116.5 85.5t86.5 69t70.5 68t37.5 61t16 68q0 55 -40.5 85t-102.5 30q-100 0 -192 -65l-31 100q116 78 246 78q110 0 187 -56t77 -155q0 -37 -9.5 -70.5t-34.5 -67.5t-48.5 -59.5t-71 -63t-81 -62t-100.5 -71.5 t-108 -77h1h1h1h1h1h1h1h1h1h1h1h1h1h1h1h1h1h1h1h1h1h1h1h1h1h1h1h1h1h1h1h1h1h1h1h1h1h1h1h1h1h1h1h1h1h1h1h1h1h1h1h1h1h1h1h1h1h1h1h1h1h1h1h1h1h1h1h1h1h1h1h1h1h1h1h1h2h1h1h1h1h1h1h1h1h2h1h1h1h1h1h1h2h1h1h1h1h1h2h1h1h1h1h2h1h1h1h2h1h1h1h2h1h1h1h2h1h1h1h2h1h1 h2h1h1h2h1h1h1h2h1h1h2h1h2h1h1h2h1h1h2h1h2h1h1h2h1h1h2h1h2h1h2h1h1h2h1h2h1h2h1h2h1h2h1h1h2h1h2h1h2h1h2h1h2h1h2h1h2h1h2h2h1h2h1h2h1h2h1h2h2h1h2h1h2h1h2h2h1h2h1h2h2h1h2h1h2h2h1h2h2h1h2h1h2h2h1h2h2h1h2h2h1h2h2h2h1h2h2h1h2h2h1h2h2h2h1h2h2h1h2h2h2h1h2h2h2h1h2 h2h2h2h1h2h2h2h1h2h2h2h2h1h2h2h2h2h2h1h2h2h2h2h2h1h2h2h2h2h2h2h1h2h2h2h2h9l-13 -111h-1h-1h-1h-1h-1h-1h-1h-1h-1h-1h-1h-1h-1h-1h-1h-1h-1h-1h-1h-1h-1h-1h-1h-1h-1h-1h-1h-1h-1h-1h-1h-1h-1h-1h-1h-1h-1h-1h-1h-1h-1h-1h-1h-1h-1h-1h-1h-1h-1h-1h-1h-1h-1h-1h-1h-1h-1 h-1h-1h-1h-1h-1h-1h-1h-1h-1h-1h-1h-1h-1h-1h-1h-1h-1h-1h-1h-1h-1h-1h-1h-1h-1h-1h-1h-1h-1h-1h-1h-1h-1h-1h-1h-1h-1h-1h-1h-2h-1h-1h-1h-1h-1h-1h-1h-1h-1h-1h-1h-1h-2h-1h-1h-1h-1h-1h-1h-1h-1h-2h-1h-1h-1h-1h-1h-1h-2h-1h-1h-1h-1h-1h-2h-1h-1h-1h-1h-2h-1h-1h-1h-1 h-2h-1h-1h-1h-2h-1h-1h-1h-2h-1h-1h-1h-2h-1h-1h-1h-2h-1h-1h-1h-2h-1h-1h-2h-1h-1h-2h-1h-1h-1h-2h-1h-1h-2h-1h-1h-2h-1h-1h-2h-1h-2h-1h-1h-2h-1h-1h-2h-1h-1h-2h-1h-2h-1h-1h-2h-1h-2h-1h-1h-2h-1h-2h-1h-1h-2h-1h-2h-1h-2h-1h-2h-1h-1h-2h-1h-2h-1h-2h-1h-2h-1h-2h-1 h-2h-1h-1h-2h-1h-2h-1h-2h-1h-2h-1h-2h-1h-2h-1h-2h-2h-1h-2h-1h-2h-1h-2h-1h-2h-1h-2h-1h-2h-2h-1h-2h-1h-2h-1h-2h-2h-1h-2h-1h-2h-1h-2h-2h-1h-2h-1h-2h-2h-1h-2h-2h-1h-2h-1h-2h-2h-1h-2h-2h-1h-2h-1h-2h-2h-1h-2h-2h-1h-2h-2h-1h-2h-2h-1h-2h-2h-1h-2h-2h-1h-2h-2h-2 h-1h-2h-2h-1h-2h-2h-2h-1h-2h-2h-1h-2h-2h-2h-1h-2h-2h-2h-1h-2h-2h-2h-1h-2h-2h-2h-1h-2h-2h-2h-1h-2h-2h-2h-2h-1h-2h-2h-2h-2h-1h-2h-2h-2h-2h-1h-2h-2h-2h-2h-2h-1h-2h-2h-2h-2h-2h-2h-1h-2h-2h-2h-2h-2h-2h-1h-2h-2h-2h-2h-2h-2h-2h-2h-1h-2h-2h-2h-2h-2h-2h-2h-8z" />
<glyph unicode="&#xb3;" horiz-adv-x="675" d="M18 610l39 107q118 -66 230 -66q72 0 125 34.5t53 98.5q0 34 -18 58t-49 36t-64 17.5t-70 5.5q-30 0 -92 -4l14 96q303 37 303 154q0 48 -40 71t-97 23q-100 0 -198 -55l-29 104q117 62 242 62q64 0 120.5 -16t99 -58t42.5 -104q0 -46 -21.5 -83.5t-58.5 -61.5t-77 -39.5 t-87 -24.5q91 -7 154 -51t63 -126q0 -111 -94 -178t-225 -67q-66 0 -139.5 18t-125.5 49z" />
<glyph unicode="&#xb4;" horiz-adv-x="806" d="M362 1065l289 371h211l-370 -371h-130z" />
<glyph unicode="&#xb6;" horiz-adv-x="1019" d="M168 858q0 186 133.5 303t357.5 117h340l-280 -1411h-146l134 659q-23 -4 -119 -4q-55 0 -111 11t-112.5 36.5t-99.5 63t-70 96t-27 129.5z" />
<glyph unicode="&#xb7;" horiz-adv-x="450" d="M96 467q0 53 38.5 91t96.5 38q56 0 92.5 -37.5t36.5 -91.5t-36.5 -93.5t-92.5 -39.5q-57 0 -96 39.5t-39 93.5z" />
<glyph unicode="&#xb8;" horiz-adv-x="806" d="M139 -524l8 108q119 -4 180.5 24t61.5 79q0 43 -59 65t-176 15v88l282 225h137l-272 -217q106 -9 164.5 -54.5t58.5 -113.5q0 -95 -97 -154t-288 -65z" />
<glyph unicode="&#xb9;" horiz-adv-x="675" d="M197 1153l18 113l338 75l-168 -782h-131l135 635z" />
<glyph unicode="&#xba;" horiz-adv-x="862" d="M150 860q0 86 30 167t83 144.5t132.5 101.5t171.5 38q147 0 239.5 -101t92.5 -249q0 -117 -51 -218.5t-148.5 -165t-220.5 -63.5q-147 0 -238 98t-91 248zM283 868q0 -106 57 -171.5t156 -65.5q82 0 145.5 51t93 123t29.5 149q0 106 -57 173t-156 67q-62 0 -114.5 -30.5 t-85 -78.5t-50.5 -104.5t-18 -112.5z" />
<glyph unicode="&#xbb;" horiz-adv-x="1200" d="M-2 182l469 312v2l-340 295l39 116l475 -332l-39 -194l-602 -330zM565 195l451 299v2l-324 282l37 109l453 -316l-37 -184l-574 -315z" />
<glyph unicode="&#xbc;" horiz-adv-x="1464" d="M-12 -238l1382 1518h129l-1382 -1518h-129zM238 1153l18 113l338 75l-168 -782h-131l135 635zM770 -100l2 86l461 499h156l-103 -483h119l-19 -102h-120l-41 -193h-123l39 193h-371zM909 2h256l74 356z" />
<glyph unicode="&#xbd;" horiz-adv-x="1464" d="M-12 -238l1382 1518h129l-1382 -1518h-129zM238 1153l18 113l338 75l-168 -782h-131l135 635zM766 -293q-1 0 2 29l6 58l4 30q49 37 114.5 84.5t102.5 75t82.5 63t69.5 59.5t47.5 53t33 56.5t9.5 56.5q0 55 -40.5 85t-102.5 30q-101 0 -193 -65l-31 100q116 78 246 78 q110 0 187 -56t77 -155q0 -37 -9.5 -70.5t-34.5 -67.5t-48 -59.5t-71 -63.5t-80.5 -61.5t-100.5 -71.5t-108 -77h1h1h1h1h1h1h1h1h1h1h1h1h1h1h1h1h1h1h1h1h1h1h1h1h1h1h1h1h1h1h1h1h1h1h1h1h1h1h1h1h1h1h1h1h1h1h1h1h1h1h1h1h1h1h1h1h1h1h1h1h1h1h1h1h1h1h1h1h1h1h1h1h1h1 h2h1h1h1h1h1h1h1h1h1h2h1h1h1h1h1h1h2h1h1h1h1h1h2h1h1h1h1h2h1h1h1h1h2h1h1h1h2h1h1h2h1h1h1h2h1h1h1h2h1h1h2h1h1h2h1h1h2h1h1h2h1h1h2h1h2h1h1h2h1h2h1h1h2h1h2h1h1h2h1h2h1h2h1h1h2h1h2h1h2h1h2h1h2h1h2h1h2h1h2h1h2h1h2h1h2h1h2h1h2h2h1h2h1h2h1h2h1h2h2h1h2h1h2h2h1h2 h1h2h2h1h2h1h2h2h1h2h2h1h2h2h1h2h2h1h2h2h1h2h2h1h2h2h1h2h2h1h2h2h2h1h2h2h1h2h2h2h1h2h2h2h1h2h2h2h1h2h2h2h2h1h2h2h2h2h1h2h2h2h2h1h2h2h2h2h2h1h2h2h2h2h2h2h1h2h2h2h2h2h2h9l-12 -111h-1h-1h-1h-1h-1h-1h-1h-1h-1h-1h-1h-1h-1h-1h-1h-1h-1h-1h-1h-1h-1h-1h-1h-1h-1 h-1h-1h-1h-1h-1h-1h-1h-1h-1h-1h-1h-1h-1h-1h-1h-1h-1h-1h-1h-1h-1h-1h-1h-1h-1h-1h-1h-1h-1h-1h-1h-1h-1h-1h-1h-1h-1h-1h-1h-1h-1h-1h-1h-1h-1h-1h-1h-1h-1h-1h-1h-1h-1h-1h-1h-1h-1h-1h-1h-1h-1h-1h-1h-1h-1h-1h-1h-1h-1h-1h-1h-2h-1h-1h-1h-1h-1h-1h-1h-1h-1h-1h-1h-1 h-2h-1h-1h-1h-1h-1h-1h-1h-1h-2h-1h-1h-1h-1h-1h-1h-2h-1h-1h-1h-1h-1h-2h-1h-1h-1h-1h-2h-1h-1h-1h-1h-2h-1h-1h-1h-2h-1h-1h-1h-2h-1h-1h-1h-2h-1h-1h-1h-2h-1h-1h-1h-2h-1h-1h-2h-1h-1h-2h-1h-1h-1h-2h-1h-1h-2h-1h-1h-2h-1h-1h-2h-1h-2h-1h-1h-2h-1h-1h-2h-1h-1h-2h-1 h-2h-1h-1h-2h-1h-2h-1h-1h-2h-1h-2h-1h-1h-2h-1h-2h-1h-2h-1h-2h-1h-1h-2h-1h-2h-1h-2h-1h-2h-1h-2h-1h-2h-1h-1h-2h-1h-2h-1h-2h-1h-2h-1h-2h-1h-2h-1h-2h-2h-1h-2h-1h-2h-1h-2h-1h-2h-1h-2h-1h-2h-2h-1h-2h-1h-2h-1h-2h-2h-1h-2h-1h-2h-1h-2h-2h-1h-2h-1h-2h-2h-1h-2h-2 h-1h-2h-1h-2h-2h-1h-2h-2h-1h-2h-1h-2h-2h-1h-2h-2h-1h-2h-2h-1h-2h-2h-1h-2h-2h-1h-2h-2h-1h-2h-2h-2h-1h-2h-2h-1h-2h-2h-2h-1h-2h-2h-1h-2h-2h-2h-1h-2h-2h-2h-1h-2h-2h-2h-1h-2h-2h-2h-1h-2h-2h-2h-1h-2h-2h-2h-2h-1h-2h-2h-2h-2h-1h-2h-2h-2h-2h-1h-2h-2h-2h-2h-2h-1 h-2h-2h-2h-2h-2h-2h-1h-2h-2h-2h-2h-2h-2h-1h-2h-2h-2h-2h-2h-2h-2h-2h-1h-2h-2h-2h-2h-2h-2h-2h-8z" />
<glyph unicode="&#xbe;" horiz-adv-x="1464" d="M-12 -238l1382 1518h129l-1382 -1518h-129zM59 610l39 107q118 -66 230 -66q72 0 125 34.5t53 98.5q0 34 -18 58t-49 36t-64 17.5t-70 5.5q-30 0 -92 -4l14 96q303 37 303 154q0 48 -40 71t-97 23q-100 0 -198 -55l-29 104q117 62 242 62q64 0 120.5 -16t99 -58 t42.5 -104q0 -46 -21.5 -83.5t-58.5 -61.5t-77 -39.5t-87 -24.5q91 -7 154 -51t63 -126q0 -111 -94 -178t-225 -67q-66 0 -139.5 18t-125.5 49zM770 -100l2 86l461 499h156l-103 -483h119l-19 -102h-120l-41 -193h-123l39 193h-371zM909 2h256l74 356z" />
<glyph unicode="&#xbf;" horiz-adv-x="729" d="M41 281q0 58 17 105t41.5 76.5t63.5 54t71 37.5t75 26q112 32 143 51q48 29 48 84q0 26 -15 58t-28.5 50t-38.5 49l86 19q53 -39 86 -93t33 -114q0 -53 -19.5 -92.5t-58 -66t-75 -42t-91.5 -32.5q-39 -12 -54 -17t-46 -16.5t-44.5 -21t-30.5 -24t-23.5 -33t-6.5 -40.5 q0 -48 30.5 -83t78.5 -53t94.5 -26t89.5 -8q32 0 94 4l-29 -158q-44 -6 -92 -6q-102 0 -191 34.5t-148.5 107.5t-59.5 170zM426 1176q0 54 37 93.5t94 39.5t95 -39.5t38 -93.5t-38 -91.5t-95 -37.5t-94 37.5t-37 91.5z" />
<glyph unicode="&#xc0;" horiz-adv-x="1191" d="M-98 0l768 1278h194l226 -1278h-179l-55 334h-567l-197 -334h-190zM383 492h448l-98 598zM545 1778h211l145 -371h-129z" />
<glyph unicode="&#xc1;" horiz-adv-x="1191" d="M-98 0l768 1278h194l226 -1278h-179l-55 334h-567l-197 -334h-190zM383 492h448l-98 598zM709 1407l288 371h211l-370 -371h-129z" />
<glyph unicode="&#xc2;" horiz-adv-x="1191" d="M-98 0l768 1278h194l226 -1278h-179l-55 334h-567l-197 -334h-190zM383 492h448l-98 598zM444 1407l310 383h180l162 -383h-150l-119 260h-4l-217 -260h-162z" />
<glyph unicode="&#xc3;" horiz-adv-x="1191" d="M-98 0l768 1278h194l226 -1278h-179l-55 334h-567l-197 -334h-190zM383 492h448l-98 598zM399 1432q17 56 34.5 97t44 80t64.5 59t87 20q54 0 104.5 -21.5t81 -47.5t66 -47.5t63.5 -21.5q34 0 57.5 38.5t34.5 80.5h125q-13 -45 -26 -78.5t-32.5 -68.5t-42.5 -57.5 t-56 -37t-72 -14.5q-54 0 -104.5 21.5t-81.5 47t-66.5 47t-63.5 21.5q-34 0 -57.5 -38t-34.5 -80h-125z" />
<glyph unicode="&#xc4;" horiz-adv-x="1191" d="M-98 0l768 1278h194l226 -1278h-179l-55 334h-567l-197 -334h-190zM383 492h448l-98 598zM465 1544q0 52 35 89.5t88 37.5q54 0 89.5 -37.5t35.5 -89.5q0 -54 -35.5 -91.5t-89.5 -37.5q-53 0 -88 38t-35 91zM885 1544q0 53 34.5 90t88.5 37t88 -37t34 -90 q0 -54 -34 -91.5t-88 -37.5t-88.5 37.5t-34.5 91.5z" />
<glyph unicode="&#xc5;" horiz-adv-x="1191" d="M-96 0l727 1208q-113 52 -113 174q0 105 79.5 171.5t188.5 66.5q101 0 172.5 -56t71.5 -153q0 -75 -41 -129.5t-110 -81.5l213 -1200h-179l-55 334h-567l-197 -334h-190zM385 492h449l-99 598zM627 1389q0 -57 39.5 -90t97.5 -33q66 0 113 41t47 104q0 57 -40.5 90 t-99.5 33q-66 0 -111.5 -40t-45.5 -105z" />
<glyph unicode="&#xc6;" horiz-adv-x="1710" d="M-109 0l981 1280h904l-31 -162h-639l-76 -395h531l-31 -162h-531l-77 -399h637l-31 -162h-811l63 334h-438l-254 -334h-197zM465 496h348l123 624z" />
<glyph unicode="&#xc7;" horiz-adv-x="1222" d="M102 547q0 218 93.5 391.5t263 272t385.5 98.5q188 0 401 -78l-33 -164q-201 88 -378 88q-164 0 -290 -78t-193.5 -212t-67.5 -302q0 -204 119 -321t317 -117q162 0 334 86l39 -154q-69 -35 -165.5 -58t-183.5 -28l-135 -108q106 -9 164.5 -54.5t58.5 -113.5 q0 -95 -97 -154t-288 -65l9 108q119 -4 180 24t61 79q0 43 -59 65t-176 15v88l149 120q-227 28 -367.5 180.5t-140.5 391.5z" />
<glyph unicode="&#xc8;" horiz-adv-x="1071" d="M72 0l247 1280h811l-30 -162h-639l-76 -395h533l-33 -162h-531l-78 -399h637l-30 -162h-811zM432 1778h211l145 -371h-129z" />
<glyph unicode="&#xc9;" horiz-adv-x="1071" d="M72 0l247 1280h811l-30 -162h-639l-76 -395h533l-33 -162h-531l-78 -399h637l-30 -162h-811zM629 1407l289 371h210l-370 -371h-129z" />
<glyph unicode="&#xca;" horiz-adv-x="1071" d="M72 0l247 1280h811l-30 -162h-639l-76 -395h533l-33 -162h-531l-78 -399h637l-30 -162h-811zM408 1407l309 383h180l162 -383h-150l-118 260h-5l-217 -260h-161z" />
<glyph unicode="&#xcb;" horiz-adv-x="1071" d="M72 0l247 1280h811l-30 -162h-639l-76 -395h533l-33 -162h-531l-78 -399h637l-30 -162h-811zM414 1544q0 52 35 89.5t88 37.5q54 0 89.5 -37.5t35.5 -89.5q0 -54 -35.5 -91.5t-89.5 -37.5q-53 0 -88 38t-35 91zM834 1544q0 53 34 90t88 37t88.5 -37t34.5 -90 q0 -54 -34.5 -91.5t-88.5 -37.5t-88 37.5t-34 91.5z" />
<glyph unicode="&#xcc;" horiz-adv-x="505" d="M76 0l248 1280h172l-248 -1280h-172zM150 1778h210l146 -371h-129z" />
<glyph unicode="&#xcd;" horiz-adv-x="505" d="M76 0l248 1280h172l-248 -1280h-172zM350 1407l289 371h211l-371 -371h-129z" />
<glyph unicode="&#xce;" horiz-adv-x="505" d="M76 0l248 1280h172l-248 -1280h-172zM86 1407l309 383h180l162 -383h-149l-119 260h-4l-217 -260h-162z" />
<glyph unicode="&#xcf;" horiz-adv-x="505" d="M76 0l248 1280h172l-248 -1280h-172zM104 1544q0 52 35 89.5t88 37.5q54 0 89.5 -37.5t35.5 -89.5q0 -54 -35.5 -91.5t-89.5 -37.5q-53 0 -88 38t-35 91zM524 1544q0 53 34.5 90t88.5 37t88.5 -37t34.5 -90q0 -54 -34.5 -91.5t-88.5 -37.5t-88.5 37.5t-34.5 91.5z" />
<glyph unicode="&#xd0;" horiz-adv-x="1316" d="M68 573v150h147l109 557h305q128 0 239.5 -35t196 -101.5t133.5 -172t49 -236.5q0 -119 -28.5 -226t-90 -200.5t-151 -162t-219.5 -107.5t-287 -39h-395l110 573h-118zM281 162h227q118 0 219.5 37.5t177 107t119 175t43.5 233.5q0 200 -121 299t-340 102l-141 2 l-76 -395h348v-150h-377z" />
<glyph unicode="&#xd1;" horiz-adv-x="1357" d="M72 0l241 1280h217l459 -1067l197 1067h168l-244 -1292h-209l-463 1081l-196 -1069h-170zM483 1432q17 56 34.5 97t44 80t64.5 59t87 20q54 0 104.5 -21.5t81 -47.5t66 -47.5t63.5 -21.5q34 0 57.5 38.5t34.5 80.5h125q-13 -45 -26 -78.5t-32.5 -68.5t-42.5 -57.5 t-56 -37t-72 -14.5q-54 0 -104.5 21.5t-81.5 47t-66.5 47t-63.5 21.5q-34 0 -57.5 -38t-34.5 -80h-125z" />
<glyph unicode="&#xd2;" horiz-adv-x="1462" d="M106 569q0 147 54.5 282.5t148.5 237t229.5 162t288.5 60.5q170 0 306 -73.5t214 -210.5t78 -314q0 -117 -34.5 -228t-100 -204t-153 -163t-199.5 -109.5t-233 -39.5q-171 0 -307 74t-214 211.5t-78 314.5zM285 584q0 -205 121.5 -333t318.5 -128q117 0 217 48.5 t165.5 128.5t102.5 183t37 213q0 205 -120.5 332t-317.5 127q-156 0 -278 -82t-184 -211t-62 -278zM565 1778h211l146 -371h-129z" />
<glyph unicode="&#xd3;" horiz-adv-x="1462" d="M106 569q0 147 54.5 282.5t148.5 237t229.5 162t288.5 60.5q170 0 306 -73.5t214 -210.5t78 -314q0 -117 -34.5 -228t-100 -204t-153 -163t-199.5 -109.5t-233 -39.5q-171 0 -307 74t-214 211.5t-78 314.5zM285 584q0 -205 121.5 -333t318.5 -128q117 0 217 48.5 t165.5 128.5t102.5 183t37 213q0 205 -120.5 332t-317.5 127q-156 0 -278 -82t-184 -211t-62 -278zM803 1407l289 371h211l-371 -371h-129z" />
<glyph unicode="&#xd4;" horiz-adv-x="1462" d="M106 569q0 147 54.5 282.5t148.5 237t229.5 162t288.5 60.5q170 0 306 -73.5t214 -210.5t78 -314q0 -117 -34.5 -228t-100 -204t-153 -163t-199.5 -109.5t-233 -39.5q-171 0 -307 74t-214 211.5t-78 314.5zM285 584q0 -205 121.5 -333t318.5 -128q117 0 217 48.5 t165.5 128.5t102.5 183t37 213q0 205 -120.5 332t-317.5 127q-156 0 -278 -82t-184 -211t-62 -278zM561 1407l309 383h181l161 -383h-149l-119 260h-4l-217 -260h-162z" />
<glyph unicode="&#xd5;" horiz-adv-x="1462" d="M106 569q0 147 54.5 282.5t148.5 237t229.5 162t288.5 60.5q170 0 306 -73.5t214 -210.5t78 -314q0 -117 -34.5 -228t-100 -204t-153 -163t-199.5 -109.5t-233 -39.5q-171 0 -307 74t-214 211.5t-78 314.5zM285 584q0 -205 121.5 -333t318.5 -128q117 0 217 48.5 t165.5 128.5t102.5 183t37 213q0 205 -120.5 332t-317.5 127q-156 0 -278 -82t-184 -211t-62 -278zM532 1432q17 56 34.5 97t44 80t64.5 59t87 20q54 0 104.5 -21.5t81 -47.5t66 -47.5t63.5 -21.5q34 0 57.5 38.5t34.5 80.5h125q-13 -45 -26 -78.5t-32.5 -68.5t-42.5 -57.5 t-56 -37t-72 -14.5q-54 0 -104.5 21.5t-81 47t-66 47t-63.5 21.5q-34 0 -58 -38.5t-35 -79.5h-125z" />
<glyph unicode="&#xd6;" horiz-adv-x="1462" d="M106 569q0 147 54.5 282.5t148.5 237t229.5 162t288.5 60.5q170 0 306 -73.5t214 -210.5t78 -314q0 -117 -34.5 -228t-100 -204t-153 -163t-199.5 -109.5t-233 -39.5q-171 0 -307 74t-214 211.5t-78 314.5zM285 584q0 -205 121.5 -333t318.5 -128q117 0 217 48.5 t165.5 128.5t102.5 183t37 213q0 205 -120.5 332t-317.5 127q-156 0 -278 -82t-184 -211t-62 -278zM582 1544q0 52 35 89.5t88 37.5q54 0 89 -37.5t35 -89.5q0 -54 -35 -91.5t-89 -37.5q-53 0 -88 38t-35 91zM1001 1544q0 53 34.5 90t88.5 37t88.5 -37t34.5 -90 q0 -54 -34.5 -91.5t-88.5 -37.5t-88.5 37.5t-34.5 91.5z" />
<glyph unicode="&#xd7;" horiz-adv-x="991" d="M82 158l326 321l-326 322l98 98l322 -326l321 326l99 -98l-326 -322l326 -321l-99 -99l-321 326l-322 -326z" />
<glyph unicode="&#xd8;" horiz-adv-x="1462" d="M66 -137l221 268q-84 80 -130 192t-46 246q0 146 54.5 281.5t148.5 237t229.5 162.5t287.5 61q205 0 349 -101l172 207h141l-227 -274q166 -169 166 -428q0 -147 -55 -283t-149.5 -238t-230 -163.5t-286.5 -61.5q-190 0 -340 94l-166 -200h-139zM289 584q0 -191 108 -318 l676 813q-112 76 -258 76q-95 0 -179 -31t-146.5 -85.5t-108 -126t-69 -156t-23.5 -172.5zM479 195q107 -72 250 -72q118 0 218 48.5t166 128.5t103 183t37 213q0 183 -100 310z" />
<glyph unicode="&#xd9;" horiz-adv-x="1265" d="M125 371q0 71 16 157l148 752h174l-146 -752q-16 -74 -16 -118q0 -140 82.5 -209.5t228.5 -69.5q142 0 228.5 87.5t115.5 234.5l162 827h172l-162 -842q-43 -221 -175.5 -345t-350.5 -124q-212 0 -344.5 103t-132.5 299zM508 1778h211l145 -371h-129z" />
<glyph unicode="&#xda;" horiz-adv-x="1265" d="M125 371q0 71 16 157l148 752h174l-146 -752q-16 -74 -16 -118q0 -140 82.5 -209.5t228.5 -69.5q142 0 228.5 87.5t115.5 234.5l162 827h172l-162 -842q-43 -221 -175.5 -345t-350.5 -124q-212 0 -344.5 103t-132.5 299zM725 1407l289 371h211l-371 -371h-129z" />
<glyph unicode="&#xdb;" horiz-adv-x="1265" d="M125 371q0 71 16 157l148 752h174l-146 -752q-16 -74 -16 -118q0 -140 82.5 -209.5t228.5 -69.5q142 0 228.5 87.5t115.5 234.5l162 827h172l-162 -842q-43 -221 -175.5 -345t-350.5 -124q-212 0 -344.5 103t-132.5 299zM481 1407l310 383h180l162 -383h-150l-119 260h-4 l-217 -260h-162z" />
<glyph unicode="&#xdc;" horiz-adv-x="1265" d="M125 371q0 71 16 157l148 752h174l-146 -752q-16 -74 -16 -118q0 -140 82.5 -209.5t228.5 -69.5q142 0 228.5 87.5t115.5 234.5l162 827h172l-162 -842q-43 -221 -175.5 -345t-350.5 -124q-212 0 -344.5 103t-132.5 299zM481 1544q0 52 35 89.5t88 37.5q54 0 89.5 -37.5 t35.5 -89.5q0 -54 -35.5 -91.5t-89.5 -37.5q-53 0 -88 38t-35 91zM901 1544q0 53 34.5 90t88.5 37t88.5 -37t34.5 -90q0 -54 -34.5 -91.5t-88.5 -37.5t-88.5 37.5t-34.5 91.5z" />
<glyph unicode="&#xdd;" horiz-adv-x="1105" d="M182 1280h189l225 -606l444 606h199l-594 -776l-98 -504h-166l100 516zM625 1407l288 371h211l-370 -371h-129z" />
<glyph unicode="&#xde;" horiz-adv-x="1099" d="M72 0l247 1280h175l-41 -209h153q112 0 203 -32.5t147.5 -86.5t86.5 -120t30 -136q0 -102 -35.5 -188.5t-103.5 -151.5t-173 -101.5t-237 -37.5l-235 -2l-45 -215h-172zM317 379h228q89 1 157.5 25t109 65.5t61 91.5t20.5 107q0 110 -82 175.5t-231 65.5h-160z" />
<glyph unicode="&#xdf;" horiz-adv-x="1167" d="M82 797l6 106l184 45q19 129 25 135q17 92 56.5 160t94 106t115.5 56t129 18q150 0 244 -81.5t94 -211.5q0 -67 -26 -118.5t-63 -83.5t-74 -59t-63 -59t-26 -69q0 -33 23.5 -65t58.5 -57t76 -58t76 -67t58.5 -87.5t23.5 -115.5q0 -128 -102 -225.5t-255 -96.5 q-87 0 -162.5 21.5t-166.5 68.5l47 162q103 -59 168.5 -82.5t132.5 -23.5q75 0 119.5 48t44.5 111q0 43 -23 82t-57.5 67t-74.5 61t-74.5 64.5t-57.5 79t-23 101.5q0 53 24.5 94t59.5 69l70 56t59.5 70t24.5 96q0 72 -42.5 117t-123.5 45q-83 0 -138.5 -50.5t-74.5 -144.5 l-211 -1081h-168l152 784z" />
<glyph unicode="&#xe0;" horiz-adv-x="935" d="M27 240q0 59 21 109t69 93t119.5 72t179 43.5t241.5 9.5l7 33q19 105 -37 159t-181 54q-64 0 -140 -22.5t-142 -57.5l-14 156q63 34 151 56t172 22q208 0 301 -101t53 -301l-67 -319q-16 -68 -3 -97.5t72 -29.5l-36 -142q-55 -4 -96.5 7.5t-63.5 34t-33 44.5t-14 46h-2 q-60 -63 -135 -100.5t-148 -37.5q-118 0 -196 82t-78 187zM205 260q0 -64 43.5 -102.5t111.5 -38.5q122 0 228 86l49 252q-214 -7 -323 -58t-109 -139zM285 1436h211l145 -371h-129z" />
<glyph unicode="&#xe1;" horiz-adv-x="935" d="M27 240q0 59 21 109t69 93t119.5 72t179 43.5t241.5 9.5l7 33q19 105 -37 159t-181 54q-64 0 -140 -22.5t-142 -57.5l-14 156q63 34 151 56t172 22q208 0 301 -101t53 -301l-67 -319q-16 -68 -3 -97.5t72 -29.5l-36 -142q-55 -4 -96.5 7.5t-63.5 34t-33 44.5t-14 46h-2 q-60 -63 -135 -100.5t-148 -37.5q-118 0 -196 82t-78 187zM205 260q0 -64 43.5 -102.5t111.5 -38.5q122 0 228 86l49 252q-214 -7 -323 -58t-109 -139zM442 1065l289 371h211l-371 -371h-129z" />
<glyph unicode="&#xe2;" horiz-adv-x="935" d="M27 240q0 59 21 109t69 93t119.5 72t179 43.5t241.5 9.5l7 33q19 105 -37 159t-181 54q-64 0 -140 -22.5t-142 -57.5l-14 156q63 34 151 56t172 22q208 0 301 -101t53 -301l-67 -319q-16 -68 -3 -97.5t72 -29.5l-36 -142q-55 -4 -96.5 7.5t-63.5 34t-33 44.5t-14 46h-2 q-60 -63 -135 -100.5t-148 -37.5q-118 0 -196 82t-78 187zM205 260q0 -64 43.5 -102.5t111.5 -38.5q122 0 228 86l49 252q-214 -7 -323 -58t-109 -139zM219 1065l309 383h181l161 -383h-149l-119 260h-4l-217 -260h-162z" />
<glyph unicode="&#xe3;" horiz-adv-x="935" d="M27 240q0 59 21 109t69 93t119.5 72t179 43.5t241.5 9.5l7 33q19 105 -37 159t-181 54q-64 0 -140 -22.5t-142 -57.5l-14 156q63 34 151 56t172 22q208 0 301 -101t53 -301l-67 -319q-16 -68 -3 -97.5t72 -29.5l-36 -142q-55 -4 -96.5 7.5t-63.5 34t-33 44.5t-14 46h-2 q-60 -63 -135 -100.5t-148 -37.5q-118 0 -196 82t-78 187zM190 1090q17 56 34.5 97t44 80t64.5 59t87 20q54 0 104.5 -21.5t81 -47.5t66 -47.5t63.5 -21.5q34 0 57.5 38.5t34.5 80.5h125q-13 -45 -26 -78.5t-32.5 -68.5t-42.5 -57.5t-56 -37t-72 -14.5q-54 0 -104.5 21.5 t-81 47t-66 47t-63.5 21.5q-34 0 -58 -38.5t-35 -79.5h-125zM205 260q0 -64 43.5 -102.5t111.5 -38.5q122 0 228 86l49 252q-214 -7 -323 -58t-109 -139z" />
<glyph unicode="&#xe4;" horiz-adv-x="935" d="M27 240q0 59 21 109t69 93t119.5 72t179 43.5t241.5 9.5l7 33q19 105 -37 159t-181 54q-64 0 -140 -22.5t-142 -57.5l-14 156q63 34 151 56t172 22q208 0 301 -101t53 -301l-67 -319q-16 -68 -3 -97.5t72 -29.5l-36 -142q-55 -4 -96.5 7.5t-63.5 34t-33 44.5t-14 46h-2 q-60 -63 -135 -100.5t-148 -37.5q-118 0 -196 82t-78 187zM205 260q0 -64 43.5 -102.5t111.5 -38.5q122 0 228 86l49 252q-214 -7 -323 -58t-109 -139zM238 1202q0 52 34.5 89.5t87.5 37.5q54 0 89.5 -37.5t35.5 -89.5q0 -54 -35.5 -91.5t-89.5 -37.5q-53 0 -87.5 37.5 t-34.5 91.5zM657 1202q0 53 34.5 90t88.5 37t88.5 -37t34.5 -90q0 -54 -34.5 -91.5t-88.5 -37.5t-88.5 37.5t-34.5 91.5z" />
<glyph unicode="&#xe5;" horiz-adv-x="935" d="M27 240q0 59 21 109t69 93t119.5 72t179 43.5t241.5 9.5l7 33q19 105 -37 159t-181 54q-64 0 -140 -22.5t-142 -57.5l-14 156q63 34 151 56t172 22q208 0 301 -101t53 -301l-67 -319q-16 -68 -3 -97.5t72 -29.5l-36 -142q-55 -4 -96.5 7.5t-63.5 34t-33 44.5t-14 46h-2 q-60 -63 -135 -100.5t-148 -37.5q-118 0 -196 82t-78 187zM205 260q0 -64 43.5 -102.5t111.5 -38.5q122 0 228 86l49 252q-214 -7 -323 -58t-109 -139zM334 1274q0 108 81 175t191 67q100 0 172 -55.5t72 -153.5q0 -108 -80 -172t-190 -64q-100 0 -173 53t-73 150zM444 1282 q0 -56 40 -89.5t98 -33.5q65 0 112 42t47 106q0 57 -40 88.5t-99 31.5q-65 0 -111.5 -40.5t-46.5 -104.5z" />
<glyph unicode="&#xe6;" horiz-adv-x="1540" d="M27 240q0 59 21 109t69 93t119.5 72t179 43.5t241.5 9.5l7 33q19 105 -37 159t-181 54q-64 0 -140 -22.5t-142 -57.5l-14 156q64 34 152.5 57t172.5 23q245 0 324 -144q141 144 338 144q151 0 243.5 -85.5t92.5 -230.5q0 -107 -41 -200l-621 -4v-19q0 -153 80 -229 t213 -76q109 0 217 51l29 -151q-45 -25 -121 -40.5t-142 -15.5q-127 0 -226.5 54t-155.5 157q-93 -110 -189.5 -160.5t-204.5 -50.5q-125 0 -204.5 82.5t-79.5 188.5zM205 260q0 -67 42.5 -104t112.5 -37q160 0 308 151q-23 70 -23 187q-440 -17 -440 -197zM834 571l462 4 q9 36 9 60q0 91 -51 138.5t-142 47.5q-101 0 -176.5 -68.5t-101.5 -181.5z" />
<glyph unicode="&#xe7;" horiz-adv-x="923" d="M74 420q0 142 63 266.5t182.5 203.5t268.5 79q180 0 336 -90l-35 -162q-165 100 -305 100q-80 0 -145.5 -36t-105.5 -94t-61.5 -124.5t-21.5 -132.5q0 -153 79 -229t212 -76q109 0 217 51l28 -151q-46 -25 -120 -40.5t-140 -15.5l-133 -106q106 -9 164.5 -54.5 t58.5 -113.5q0 -95 -97 -154t-288 -65l9 108q119 -4 180 24t61 79q0 43 -59 65t-176 15v88l160 129q-150 32 -241 144t-91 292z" />
<glyph unicode="&#xe8;" horiz-adv-x="968" d="M74 420q0 102 35.5 200t98.5 176t158.5 125.5t206.5 47.5q151 0 243.5 -85.5t92.5 -230.5q0 -107 -41 -200l-620 -4v-19q0 -153 80 -229t213 -76q109 0 217 51l28 -151q-45 -25 -120.5 -40.5t-141.5 -15.5q-194 0 -322 119.5t-128 331.5zM270 571l463 4q8 32 8 60 q0 91 -50.5 138.5t-141.5 47.5q-101 0 -177 -68.5t-102 -181.5zM303 1436h211l145 -371h-129z" />
<glyph unicode="&#xe9;" horiz-adv-x="968" d="M74 420q0 102 35.5 200t98.5 176t158.5 125.5t206.5 47.5q151 0 243.5 -85.5t92.5 -230.5q0 -107 -41 -200l-620 -4v-19q0 -153 80 -229t213 -76q109 0 217 51l28 -151q-45 -25 -120.5 -40.5t-141.5 -15.5q-194 0 -322 119.5t-128 331.5zM270 571l463 4q8 32 8 60 q0 91 -50.5 138.5t-141.5 47.5q-101 0 -177 -68.5t-102 -181.5zM481 1065l289 371h211l-371 -371h-129z" />
<glyph unicode="&#xea;" horiz-adv-x="968" d="M74 420q0 102 35.5 200t98.5 176t158.5 125.5t206.5 47.5q151 0 243.5 -85.5t92.5 -230.5q0 -107 -41 -200l-620 -4v-19q0 -153 80 -229t213 -76q109 0 217 51l28 -151q-45 -25 -120.5 -40.5t-141.5 -15.5q-194 0 -322 119.5t-128 331.5zM258 1065l309 383h181l161 -383 h-149l-119 260h-4l-217 -260h-162zM270 571l463 4q8 32 8 60q0 91 -50.5 138.5t-141.5 47.5q-101 0 -177 -68.5t-102 -181.5z" />
<glyph unicode="&#xeb;" horiz-adv-x="968" d="M74 420q0 102 35.5 200t98.5 176t158.5 125.5t206.5 47.5q151 0 243.5 -85.5t92.5 -230.5q0 -107 -41 -200l-620 -4v-19q0 -153 80 -229t213 -76q109 0 217 51l28 -151q-45 -25 -120.5 -40.5t-141.5 -15.5q-194 0 -322 119.5t-128 331.5zM270 571l463 4q8 32 8 60 q0 91 -50.5 138.5t-141.5 47.5q-101 0 -177 -68.5t-102 -181.5zM287 1202q0 52 35 89.5t88 37.5q54 0 89.5 -37.5t35.5 -89.5q0 -54 -35.5 -91.5t-89.5 -37.5q-53 0 -88 38t-35 91zM707 1202q0 53 34 90t88 37t88.5 -37t34.5 -90q0 -54 -34.5 -91.5t-88.5 -37.5t-88 37.5 t-34 91.5z" />
<glyph unicode="&#xec;" horiz-adv-x="458" d="M61 0l181 924l172 26l-185 -950h-168zM72 1436h211l145 -371h-129z" />
<glyph unicode="&#xed;" horiz-adv-x="458" d="M61 0l181 924l172 26l-185 -950h-168zM268 1065l289 371h211l-371 -371h-129z" />
<glyph unicode="&#xee;" horiz-adv-x="458" d="M27 1065l309 383h180l162 -383h-150l-118 260h-4l-218 -260h-161zM61 0l181 924l172 26l-185 -950h-168z" />
<glyph unicode="&#xef;" horiz-adv-x="458" d="M35 1202q0 52 35 89.5t88 37.5q54 0 89.5 -37.5t35.5 -89.5q0 -54 -35.5 -91.5t-89.5 -37.5q-53 0 -88 38t-35 91zM61 0l181 924l172 26l-185 -950h-168zM455 1202q0 53 34.5 90t88.5 37t88 -37t34 -90q0 -54 -34 -91.5t-88 -37.5t-88.5 37.5t-34.5 91.5z" />
<glyph unicode="&#xf0;" horiz-adv-x="1083" d="M74 371q0 141 65 260.5t169 186.5t220 67q206 0 306 -168l4 2q-9 53 -77.5 174t-162.5 250q1 0 -55.5 -14.5t-112.5 -28.5l-57 -15l-8 113l161 41q-70 91 -141 162l201 26q64 -67 121 -141l223 57l8 -112l-160 -41q233 -344 236 -633q0 -161 -63.5 -294.5t-183 -213.5 t-271.5 -80q-193 0 -308.5 115t-113.5 287zM256 383q0 -124 70 -195t190 -71q94 0 169 59t114 152.5t39 199.5q0 6 -7 76q-24 52 -109 91.5t-177 39.5q-118 0 -203.5 -103.5t-85.5 -248.5z" />
<glyph unicode="&#xf1;" horiz-adv-x="1058" d="M55 0l183 942l174 27l-27 -144q158 144 305 144q121 0 197 -70t76 -180q0 -47 -15 -125l-117 -594h-167l108 557q1 6 5.5 31.5t7.5 47t3 38.5q0 66 -42.5 100.5t-120.5 34.5q-66 0 -142 -36.5t-127 -88.5l-133 -684h-168zM297 1090q13 45 26 78.5t32.5 68.5t42.5 57.5 t56 37t72 14.5q54 0 104.5 -21.5t81.5 -47.5t66.5 -47.5t63.5 -21.5q34 0 57.5 38.5t34.5 80.5h125q-17 -56 -34.5 -97t-44 -80t-64.5 -59t-87 -20q-54 0 -104.5 21.5t-81 47t-66 47t-63.5 21.5q-34 0 -57.5 -38t-34.5 -80h-125z" />
<glyph unicode="&#xf2;" horiz-adv-x="1081" d="M74 406q0 108 37.5 209t104 180t166 126.5t214.5 47.5q184 0 300 -127t116 -312q0 -146 -64 -273t-186 -206.5t-275 -79.5q-183 0 -298 124t-115 311zM242 416q0 -133 70.5 -215t195.5 -82q78 0 143 37t106 96t63 129t22 141q0 132 -70.5 215.5t-193.5 83.5 q-104 0 -183 -64.5t-116 -155t-37 -185.5zM342 1436h211l145 -371h-129z" />
<glyph unicode="&#xf3;" horiz-adv-x="1081" d="M74 406q0 108 37.5 209t104 180t166 126.5t214.5 47.5q184 0 300 -127t116 -312q0 -146 -64 -273t-186 -206.5t-275 -79.5q-183 0 -298 124t-115 311zM242 416q0 -133 70.5 -215t195.5 -82q78 0 143 37t106 96t63 129t22 141q0 132 -70.5 215.5t-193.5 83.5 q-104 0 -183 -64.5t-116 -155t-37 -185.5zM541 1065l288 371h211l-370 -371h-129z" />
<glyph unicode="&#xf4;" horiz-adv-x="1081" d="M74 406q0 108 37.5 209t104 180t166 126.5t214.5 47.5q184 0 300 -127t116 -312q0 -146 -64 -273t-186 -206.5t-275 -79.5q-183 0 -298 124t-115 311zM242 416q0 -133 70.5 -215t195.5 -82q78 0 143 37t106 96t63 129t22 141q0 132 -70.5 215.5t-193.5 83.5 q-104 0 -183 -64.5t-116 -155t-37 -185.5zM338 1065l309 383h180l162 -383h-149l-119 260h-4l-217 -260h-162z" />
<glyph unicode="&#xf5;" horiz-adv-x="1081" d="M74 406q0 108 37.5 209t104 180t166 126.5t214.5 47.5q184 0 300 -127t116 -312q0 -146 -64 -273t-186 -206.5t-275 -79.5q-183 0 -298 124t-115 311zM242 416q0 -133 70.5 -215t195.5 -82q78 0 143 37t106 96t63 129t22 141q0 132 -70.5 215.5t-193.5 83.5 q-104 0 -183 -64.5t-116 -155t-37 -185.5zM309 1090q17 56 34.5 97t44 80t64.5 59t87 20q54 0 104.5 -21.5t81 -47.5t66 -47.5t63.5 -21.5q34 0 57.5 38.5t34.5 80.5h125q-13 -45 -26 -78.5t-32.5 -68.5t-42.5 -57.5t-56 -37t-72 -14.5q-54 0 -104.5 21.5t-81.5 47t-66.5 47 t-63.5 21.5q-34 0 -57.5 -38t-34.5 -80h-125z" />
<glyph unicode="&#xf6;" horiz-adv-x="1081" d="M74 406q0 108 37.5 209t104 180t166 126.5t214.5 47.5q184 0 300 -127t116 -312q0 -146 -64 -273t-186 -206.5t-275 -79.5q-183 0 -298 124t-115 311zM242 416q0 -133 70.5 -215t195.5 -82q78 0 143 37t106 96t63 129t22 141q0 132 -70.5 215.5t-193.5 83.5 q-104 0 -183 -64.5t-116 -155t-37 -185.5zM336 1202q0 52 35 89.5t88 37.5q54 0 89.5 -37.5t35.5 -89.5q0 -54 -35.5 -91.5t-89.5 -37.5q-53 0 -88 38t-35 91zM756 1202q0 53 34.5 90t88.5 37t88 -37t34 -90q0 -54 -34 -91.5t-88 -37.5t-88.5 37.5t-34.5 91.5z" />
<glyph unicode="&#xf7;" horiz-adv-x="991" d="M82 408l6 145h819l6 -145h-831zM362 168q0 55 40.5 94t99.5 39t97 -39t38 -94q0 -56 -38.5 -96.5t-96.5 -40.5q-59 0 -99.5 41t-40.5 96zM362 793q0 56 38.5 96.5t97.5 40.5t99 -41t40 -96t-40 -94.5t-99 -39.5t-97.5 39.5t-38.5 94.5z" />
<glyph unicode="&#xf8;" horiz-adv-x="1081" d="M-23 -137l203 248q-100 124 -100 295q0 108 37.5 209t104 180t166 126.5t214.5 47.5q127 0 225 -64l142 172h147q-113 -139 -203 -248q105 -127 105 -299q0 -109 -38 -210t-104.5 -178.5t-166 -124t-215.5 -46.5q-130 0 -228 64l-141 -172h-148zM248 416q0 -101 41 -172 l438 538q-61 39 -143 39q-104 0 -183 -64.5t-116 -155t-37 -185.5zM367 160q62 -41 147 -41q78 0 143 37t106 96t63 129t22 141q0 103 -41 174q0 1 -110 -133t-220 -269z" />
<glyph unicode="&#xf9;" horiz-adv-x="1058" d="M96 219q0 47 15 125l116 594h168l-108 -557q-1 -7 -6 -31.5t-8 -47t-3 -38.5q0 -66 43 -100.5t121 -34.5q66 0 141.5 36t126.5 89l134 684h168l-183 -942l-174 -27l27 144q-158 -144 -305 -144q-121 0 -197 70t-76 180zM350 1436h211l146 -371h-129z" />
<glyph unicode="&#xfa;" horiz-adv-x="1058" d="M96 219q0 47 15 125l116 594h168l-108 -557q-1 -7 -6 -31.5t-8 -47t-3 -38.5q0 -66 43 -100.5t121 -34.5q66 0 141.5 36t126.5 89l134 684h168l-183 -942l-174 -27l27 144q-158 -144 -305 -144q-121 0 -197 70t-76 180zM569 1065l289 371h211l-371 -371h-129z" />
<glyph unicode="&#xfb;" horiz-adv-x="1058" d="M96 219q0 47 15 125l116 594h168l-108 -557q-1 -7 -6 -31.5t-8 -47t-3 -38.5q0 -66 43 -100.5t121 -34.5q66 0 141.5 36t126.5 89l134 684h168l-183 -942l-174 -27l27 144q-158 -144 -305 -144q-121 0 -197 70t-76 180zM305 1065l309 383h181l161 -383h-149l-119 260h-4 l-217 -260h-162z" />
<glyph unicode="&#xfc;" horiz-adv-x="1058" d="M96 219q0 47 15 125l116 594h168l-108 -557q-1 -7 -6 -31.5t-8 -47t-3 -38.5q0 -66 43 -100.5t121 -34.5q66 0 141.5 36t126.5 89l134 684h168l-183 -942l-174 -27l27 144q-158 -144 -305 -144q-121 0 -197 70t-76 180zM324 1202q0 52 34.5 89.5t87.5 37.5 q54 0 89.5 -37.5t35.5 -89.5q0 -54 -35.5 -91.5t-89.5 -37.5q-53 0 -87.5 37.5t-34.5 91.5zM743 1202q0 53 34.5 90t88.5 37t88.5 -37t34.5 -90q0 -54 -34.5 -91.5t-88.5 -37.5t-88.5 37.5t-34.5 91.5z" />
<glyph unicode="&#xfd;" horiz-adv-x="903" d="M-217 -446l82 143q54 -45 112 -45q41 0 76 32.5t90 122.5l129 211l-176 920h172l125 -731l414 731h184l-571 -963l-131 -227q-86 -149 -155.5 -206.5t-162.5 -57.5q-54 0 -106 21.5t-82 48.5zM471 1065l289 371h211l-371 -371h-129z" />
<glyph unicode="&#xfe;" horiz-adv-x="1077" d="M-37 -477l361 1857l174 27l-105 -533q86 57 125 73q56 22 121 22q163 0 267 -119.5t104 -298.5q0 -157 -71.5 -290.5t-196 -212.5t-273.5 -79q-117 0 -244 60l-94 -506h-168zM262 213q93 -96 227 -96q99 0 180 61.5t123 155t42 196.5q0 129 -71.5 209t-176.5 80 q-59 0 -108 -21t-111 -61z" />
<glyph unicode="&#xff;" horiz-adv-x="903" d="M-217 -446l82 143q54 -45 112 -45q41 0 76 32.5t90 122.5l129 211l-176 920h172l125 -731l414 731h184l-571 -963l-131 -227q-86 -149 -155.5 -206.5t-162.5 -57.5q-54 0 -106 21.5t-82 48.5zM246 1202q0 52 35 89.5t88 37.5q54 0 89.5 -37.5t35.5 -89.5 q0 -54 -35.5 -91.5t-89.5 -37.5q-53 0 -88 38t-35 91zM666 1202q0 53 34 90t88 37t88.5 -37t34.5 -90q0 -54 -34.5 -91.5t-88.5 -37.5t-88 37.5t-34 91.5z" />
<glyph unicode="&#x152;" horiz-adv-x="1820" d="M113 545q0 119 28.5 226t89.5 200.5t150.5 162t219.5 107.5t288 39h993l-31 -162h-598l-77 -395h493l-31 -162h-493l-78 -399h600l-33 -162h-905q-127 0 -238 35.5t-195.5 102t-133.5 171.5t-49 236zM291 565q0 -200 121 -299t340 -102l141 -2l186 956h-229 q-118 0 -219.5 -37.5t-177 -107t-119 -175t-43.5 -233.5z" />
<glyph unicode="&#x153;" horiz-adv-x="1716" d="M74 406q0 108 37.5 209t104 180t166 126.5t214.5 47.5q119 0 207 -56t137 -153q65 97 161.5 153t219.5 56q151 0 243.5 -85.5t92.5 -230.5q0 -107 -41 -200l-621 -4v-19q0 -153 80 -229t213 -76q109 0 217 51l29 -151q-45 -25 -120.5 -40.5t-141.5 -15.5q-133 0 -230 55 t-151 162q-67 -100 -170 -157.5t-234 -57.5q-183 0 -298 124t-115 311zM242 416q0 -133 70.5 -215t195.5 -82q78 0 143 37t106 96t63 129t22 141q0 132 -70.5 215.5t-193.5 83.5q-104 0 -183 -64.5t-116 -155t-37 -185.5zM1018 571l463 4q8 32 8 60q0 91 -51 138.5 t-142 47.5q-101 0 -176.5 -68.5t-101.5 -181.5z" />
<glyph unicode="&#x178;" horiz-adv-x="1105" d="M182 1280h189l225 -606l444 606h199l-594 -776l-98 -504h-166l100 516zM399 1544q0 52 35 89.5t88 37.5q54 0 89.5 -37.5t35.5 -89.5q0 -54 -35.5 -91.5t-89.5 -37.5q-53 0 -88 38t-35 91zM819 1544q0 53 34.5 90t88.5 37t88.5 -37t34.5 -90q0 -54 -34.5 -91.5 t-88.5 -37.5t-88.5 37.5t-34.5 91.5z" />
<glyph unicode="&#x2c6;" horiz-adv-x="806" d="M201 1065l309 383h180l162 -383h-150l-118 260h-4l-218 -260h-161z" />
<glyph unicode="&#x2dc;" horiz-adv-x="806" d="M172 1090q13 45 26 78.5t32.5 68.5t42.5 57.5t56 37t72 14.5q54 0 104.5 -21.5t81.5 -47.5t66.5 -47.5t63.5 -21.5q34 0 57.5 38.5t34.5 80.5h125q-13 -45 -26 -78.5t-32.5 -68.5t-42.5 -57.5t-56 -37t-72 -14.5q-54 0 -104.5 21.5t-81.5 47t-66.5 47t-63.5 21.5 q-34 0 -57.5 -38t-34.5 -80h-125z" />
<glyph unicode="&#x2000;" horiz-adv-x="895" />
<glyph unicode="&#x2001;" horiz-adv-x="1790" />
<glyph unicode="&#x2002;" horiz-adv-x="895" />
<glyph unicode="&#x2003;" horiz-adv-x="1790" />
<glyph unicode="&#x2004;" horiz-adv-x="596" />
<glyph unicode="&#x2005;" horiz-adv-x="447" />
<glyph unicode="&#x2006;" horiz-adv-x="298" />
<glyph unicode="&#x2007;" horiz-adv-x="298" />
<glyph unicode="&#x2008;" horiz-adv-x="223" />
<glyph unicode="&#x2009;" horiz-adv-x="358" />
<glyph unicode="&#x200a;" horiz-adv-x="99" />
<glyph unicode="&#x2010;" horiz-adv-x="634" d="M74 418v157h504v-157h-504z" />
<glyph unicode="&#x2011;" horiz-adv-x="634" d="M74 418v157h504v-157h-504z" />
<glyph unicode="&#x2012;" horiz-adv-x="634" d="M74 418v157h504v-157h-504z" />
<glyph unicode="&#x2013;" horiz-adv-x="944" d="M66 424l6 121h813l6 -121h-825z" />
<glyph unicode="&#x2014;" horiz-adv-x="1906" d="M66 424l6 121h1775l6 -121h-1787z" />
<glyph unicode="&#x2018;" horiz-adv-x="450" d="M154 944q0 54 26 109t65.5 99t93.5 86t102 70.5t98 53.5l57 -76q-36 -20 -76 -48t-84 -65t-72 -79.5t-28 -79.5q0 -20 11.5 -40t34 -39t37 -29t38.5 -25q-13 -49 -52.5 -77t-91.5 -28q-68 0 -113.5 50t-45.5 118z" />
<glyph unicode="&#x2019;" horiz-adv-x="450" d="M90 856q36 20 76 48t84 65t72 79.5t28 79.5q0 60 -123 134q15 49 54 76.5t92 27.5q66 0 111.5 -50.5t45.5 -119.5q0 -54 -26 -108.5t-65.5 -98t-93.5 -85.5t-102 -70.5t-98 -53.5z" />
<glyph unicode="&#x201a;" horiz-adv-x="450" d="M-123 -242q36 20 76 48t83.5 65.5t72 80t28.5 79.5q0 59 -123 133q15 49 54 76.5t92 27.5q66 0 111.5 -50.5t45.5 -119.5q0 -54 -26 -108.5t-65.5 -97.5t-93.5 -85t-102 -70.5t-98 -53.5z" />
<glyph unicode="&#x201c;" horiz-adv-x="860" d="M154 944q0 54 26 109t65.5 99t93.5 86t102 70.5t98 53.5l57 -76q-36 -20 -76 -48t-84 -65t-72 -79.5t-28 -79.5q0 -20 11.5 -40t34 -39t37 -29t38.5 -25q-13 -49 -52.5 -77t-91.5 -28q-68 0 -113.5 50t-45.5 118zM592 944q0 54 26 109t65.5 99t93.5 86t102 70.5t98 53.5 l57 -76q-36 -20 -76 -48t-84 -65t-72 -79.5t-28 -79.5q0 -20 11.5 -40t34 -39t37 -29t38.5 -25q-13 -49 -51.5 -77t-91.5 -28q-68 0 -114 50t-46 118z" />
<glyph unicode="&#x201d;" horiz-adv-x="860" d="M90 856q36 20 76 48t84 65t72 79.5t28 79.5q0 60 -123 134q15 49 54 76.5t92 27.5q66 0 111.5 -50.5t45.5 -119.5q0 -54 -26 -108.5t-65.5 -98t-93.5 -85.5t-102 -70.5t-98 -53.5zM528 856q36 20 76 48t84 65t72 79.5t28 79.5q0 61 -122 134q15 49 53.5 76.5t91.5 27.5 q67 0 113.5 -51t46.5 -119q0 -54 -26.5 -108.5t-66 -98t-94 -85.5t-102.5 -70.5t-98 -53.5z" />
<glyph unicode="&#x201e;" horiz-adv-x="860" d="M-123 -242q36 20 76 48t83.5 65.5t72 80t28.5 79.5q0 59 -123 133q15 49 54 76.5t92 27.5q66 0 111.5 -50.5t45.5 -119.5q0 -54 -26 -108.5t-65.5 -97.5t-93.5 -85t-102 -70.5t-98 -53.5zM315 -242q36 20 76 48t83.5 65.5t72 80t28.5 79.5q0 60 -122 133q15 49 53.5 76.5 t91.5 27.5q67 0 113.5 -51t46.5 -119q0 -67 -38 -132.5t-101 -119t-123 -92.5t-125 -71z" />
<glyph unicode="&#x2022;" horiz-adv-x="919" d="M66 475q0 44 42.5 146t73.5 133t133.5 72.5t145.5 41.5q44 0 145.5 -41.5t132.5 -72.5t73 -133t42 -146q0 -45 -41.5 -146.5t-73.5 -133.5q-31 -31 -133.5 -73t-146.5 -42q-43 0 -145.5 42.5t-131.5 72.5q-31 33 -73.5 134.5t-42.5 145.5z" />
<glyph unicode="&#x2026;" horiz-adv-x="1376" d="M25 102q0 53 38.5 91t96.5 38q56 0 92.5 -37.5t36.5 -91.5t-36.5 -93.5t-92.5 -39.5q-57 0 -96 39.5t-39 93.5zM487 102q0 53 39 91t95 38q57 0 94 -37.5t37 -91.5t-37 -93.5t-94 -39.5q-56 0 -95 40t-39 93zM950 102q0 54 38 91.5t95 37.5t94 -37.5t37 -91.5t-37 -93.5 t-94 -39.5t-95 39.5t-38 93.5z" />
<glyph unicode="&#x202f;" horiz-adv-x="358" />
<glyph unicode="&#x2039;" horiz-adv-x="700" d="M47 383l37 192l600 332l-2 -129l-479 -311v-2l352 -297l-37 -117z" />
<glyph unicode="&#x203a;" horiz-adv-x="700" d="M23 51l2 127l477 311v3l-350 296l36 119l474 -332l-37 -194z" />
<glyph unicode="&#x205f;" horiz-adv-x="447" />
<glyph unicode="&#x20ac;" horiz-adv-x="1028" d="M53 416l6 112h164q3 45 13 109q6 41 26 119h-117l-6 112h158q75 190 203 304t309 114q95 0 188.5 -28t161.5 -82l-69 -144q-55 49 -136 77t-159 28q-104 0 -184.5 -73t-133.5 -196h467l-6 -112h-500q-15 -60 -24 -119q-14 -67 -17 -109h394l6 -112h-400q6 -149 74.5 -226 t216.5 -77q138 0 234 51v-152q-106 -49 -248 -49q-457 0 -457 453h-164z" />
<glyph unicode="&#x2122;" horiz-adv-x="1943" d="M182 1157v125h721v-125h-309v-641h-127v641h-285zM1006 516l14 766h233l164 -592h25l188 592h221l9 -766h-131l2 625h-23l-217 -602h-143l-191 600h-22l-11 -623h-118z" />
<glyph unicode="&#x25fc;" horiz-adv-x="942" d="M0 0v942h942v-942h-942z" />
</font>
</defs>
</svg>
